<svg xmlns="http://www.w3.org/2000/svg" version="1.1" xmlns:xlink="http://www.w3.org/1999/xlink" xmlns:svgjs="http://svgjs.dev/svgjs" viewBox="0 0 1422 800"><defs><linearGradient x1="50%" y1="0%" x2="50%" y2="100%" id="ccchaos-grad"><stop stop-color="hsl(162, 100%, 58%)" stop-opacity="1" offset="0%" data-darkreader-inline-stopcolor="" style="--darkreader-inline-stopcolor: #00a17d;"></stop><stop stop-color="hsl(270, 73%, 53%)" stop-opacity="1" offset="100%" data-darkreader-inline-stopcolor="" style="--darkreader-inline-stopcolor: #571797;"></stop></linearGradient></defs><g stroke-width="2" stroke="url(#ccchaos-grad)" fill="none" stroke-linecap="round"><path d="M160.84 -152.9Q177.7 -151.46 194.55 -150.28 211.41 -149.51 228.27 -149.25 245.12 -149.54 261.98 -150.34 278.83 -151.54 295.69 -152.99 312.54 -154.51 329.4 -155.9 346.26 -156.98 363.11 -157.61 379.97 -157.71 396.82 -157.27 413.68 -156.35 430.54 -155.06 447.39 -153.57 464.25 -152.07 481.1 -150.75 497.96 -149.79 514.82 -149.3 531.67 -149.35 548.53 -149.93 565.38 -150.97 582.24 -152.34 599.1 -153.85 615.95 -155.32 632.81 -156.55 649.66 -157.39 666.52 -157.73 683.37 -157.53 700.23 -156.81 717.09 -155.66 733.94 -154.23 750.8 -152.71 767.65 -151.29 784.51 -150.15 801.37 -149.45 818.22 -149.26 835.08 -149.61 851.93 -150.47 868.79 -151.71 885.65 -153.18 902.5 -154.7 919.36 -156.05 936.21 -157.08 953.07 -157.65 969.92 -157.69 986.78 -157.18 1003.64 -156.2 1020.49 -154.88 1037.35 -153.37 1054.2 -151.89 1071.06 -150.61 1087.92 -149.69 1104.77 -149.27 1121.63 -149.39 1138.48 -150.04 1155.34 -151.13 1172.2 -152.53 1189.05 -154.04 1205.91 -155.49 1222.76 -156.69 1239.62 -157.47 1256.62 -140.78 1274.99 -124.09 1291.53 -107.4 1303.33 -90.71 1308.31 -74.02 1305.62 -57.33 1295.71 -40.64 1280.33 -23.95 1262.17 -7.26 1244.42 9.42 1230.19 26.11 1221.98 42.8 1221.22 59.49 1228.05 76.18 1241.27 92.87 1258.56 109.56 1276.9 126.25 1293.06 142.94 1304.21 159.63 1308.39 176.32 1304.88 193.01 1294.29 209.7 1278.47 226.39 1260.2 243.08 1242.69 259.77 1228.99 276.46 1221.53 293.15 1221.59 309.84 1229.19 326.53 1242.97 343.22 1260.52 359.91 1278.78 376.6 1294.53 393.29 1305.01 409.98 1308.39 426.67 1304.07 443.35 1292.81 460.04 1276.59 476.73 1258.24 493.42 1241 510.11 1227.87 526.8 1221.16 543.49 1222.06 560.18 1230.39 576.87 1244.71 593.56 1262.49 610.25 1280.63 626.94 1295.94 643.63 1305.73 660.32 1308.29 677.01 1303.17 693.7 1291.28 710.39 1274.68 727.08 1256.3 743.77 1239.35 760.46 1226.82 777.15 1220.89 793.84 1222.61 810.53 1231.67 827.22 1246.49 843.91 1264.47 860.6 1282.45 877.29 1297.28 893.98 1306.36 910.67 1288.33 919.1 1270.29 931.95 1252.25 947.57 1234.21 963.94 1216.17 978.98 1198.13 990.74 1180.09 997.72 1162.05 999.02 1144.01 994.47 1125.97 984.65 1107.93 970.84 1089.9 954.79 1071.86 938.58 1053.82 924.29 1035.78 913.74 1017.74 908.31 999.7 908.67 981.66 914.8 963.62 925.89 945.58 940.54 927.54 956.84 909.5 972.72 891.47 986.12 873.43 995.34 855.39 999.18 837.35 997.15 819.31 989.52 801.27 977.25 783.23 961.94 765.19 945.54 747.15 930.16 729.11 917.78 711.07 909.99 693.04 907.79 675 911.45 656.96 920.52 638.92 933.82 620.88 949.66 602.84 965.98 584.8 980.7 566.76 991.92 548.72 998.21 530.68 998.76 512.64 993.49 494.6 983.08 476.57 968.87 458.53 952.69 440.49 936.61 422.45 922.7 404.41 912.75 386.37 908.02 368.33 909.14 350.29 915.96 332.25 927.6 314.21 942.56 296.17 958.93 278.14 974.6 260.1 987.56 242.06 996.14 224.02 999.25 205.98 996.48 187.94 988.18 169.9 975.43 151.86 959.86 153.08 942.48 155.08 925.09 157.5 907.7 159.92 890.32 161.91 872.93 163.13 855.54 163.36 838.15 162.56 820.77 160.88 803.38 158.6 785.99 156.12 768.61 153.89 751.22 152.29 733.83 151.6 716.44 151.95 699.06 153.26 681.67 155.32 664.28 157.76 646.9 160.16 629.51 162.08 612.12 163.2 594.73 163.32 577.35 162.42 559.96 160.66 542.57 158.34 525.19 155.87 507.8 153.69 490.41 152.17 473.02 151.59 455.64 152.04 438.25 153.45 420.86 155.57 403.48 158.03 386.09 160.39 368.7 162.25 351.31 163.27 333.93 163.28 316.54 162.27 299.15 160.43 281.76 158.07 264.38 155.61 246.99 153.49 229.6 152.06 212.22 151.59 194.83 152.15 177.44 153.65 160.05 155.83 142.67 158.29 125.28 160.62 107.89 162.4 90.51 163.32 73.12 163.22 55.73 162.11 38.34 160.2 20.96 157.81 3.57 155.36 -13.81 153.3 -31.19 151.96 -48.58 151.6 -65.97 152.27 -83.36 153.86 -100.74 156.08 -118.13 158.56 -135.52 160.84 -152.9" stroke-dasharray="10 15" transform="rotate(0, 711, 400)" opacity="0.26"></path><path d="M178.5 -130.3Q195.08 -129.03 211.66 -128.22 228.24 -127.99 244.82 -128.35 261.4 -129.26 277.98 -130.62 294.56 -132.27 311.14 -134 327.72 -135.61 344.3 -136.91 360.88 -137.74 377.46 -138.01 394.04 -137.68 410.62 -136.79 427.2 -135.45 443.78 -133.82 460.36 -132.08 476.94 -130.46 493.52 -129.14 510.1 -128.28 526.68 -127.98 543.26 -128.28 559.84 -129.14 576.42 -130.46 593 -132.08 609.58 -133.81 626.16 -135.45 642.74 -136.79 659.32 -137.68 675.9 -138.01 692.47 -137.74 709.05 -136.91 725.63 -135.61 742.21 -134 758.79 -132.27 775.37 -130.62 791.95 -129.26 808.53 -128.35 825.11 -127.99 841.69 -128.22 858.27 -129.03 874.85 -130.3 891.43 -131.9 908.01 -133.63 924.59 -135.28 941.17 -136.66 957.75 -137.61 974.33 -138 990.91 -137.8 1007.49 -137.02 1024.07 -135.77 1040.65 -134.18 1057.23 -132.45 1073.81 -130.79 1090.39 -129.39 1106.97 -128.42 1123.55 -128 1140.13 -128.17 1156.71 -128.91 1173.29 -130.15 1189.87 -131.72 1206.45 -133.45 1223.03 -135.12 1239.6 -136.53 1256.86 -120.32 1272.02 -104.1 1282.62 -87.89 1286.93 -71.67 1284.25 -55.46 1275.02 -39.24 1260.74 -23.03 1243.73 -6.81 1226.77 9.39 1212.61 25.61 1203.56 41.82 1201.09 58.04 1205.6 74.25 1216.37 90.47 1231.63 106.68 1248.91 122.9 1265.38 139.11 1278.38 155.33 1285.77 171.55 1286.37 187.76 1280.07 203.98 1267.9 220.19 1251.83 236.41 1234.49 252.62 1218.7 268.84 1207.02 285.05 1201.37 301.27 1202.65 317.48 1210.66 333.7 1224.1 349.91 1240.78 366.13 1257.98 382.34 1272.9 398.56 1283.12 414.77 1286.97 430.99 1283.82 447.2 1274.2 463.42 1259.65 479.63 1242.56 495.85 1225.7 512.07 1211.82 528.28 1203.17 544.5 1201.18 560.71 1206.15 576.93 1217.28 593.14 1232.76 609.36 1250.07 625.57 1266.39 641.79 1279.07 658 1286.03 674.22 1286.16 690.43 1279.42 706.65 1266.91 722.86 1250.67 739.08 1233.35 755.29 1217.76 771.51 1206.44 787.72 1201.23 803.94 1202.99 820.15 1211.42 836.37 1225.15 852.59 1241.95 868.8 1259.09 885.02 1273.76 901.23 1256.59 913.96 1239.41 928.96 1222.24 944.43 1205.06 958.55 1187.89 969.62 1170.71 976.32 1153.54 977.86 1136.36 974.05 1119.18 965.34 1102.01 952.78 1084.83 937.86 1067.66 922.36 1050.48 908.13 1033.31 896.86 1016.13 889.9 998.96 888.08 981.78 891.61 964.61 900.07 947.43 912.46 930.26 927.3 913.08 942.81 895.91 957.16 878.73 968.62 861.55 975.84 844.38 977.95 827.2 974.7 810.03 966.48 792.85 954.27 775.68 939.52 758.5 923.99 741.33 909.54 724.15 897.88 706.98 890.41 689.8 888.02 672.63 890.98 655.45 898.96 638.28 910.99 621.1 925.65 603.93 941.18 586.75 955.73 569.57 967.58 552.4 975.3 535.22 977.98 518.05 975.3 500.87 967.57 483.7 955.72 466.52 941.17 449.35 925.63 432.17 910.98 415 898.95 397.82 890.98 380.65 888.02 363.47 890.41 346.3 897.89 329.12 909.55 311.95 924 294.77 939.53 277.59 954.28 260.42 966.49 243.24 974.71 226.07 977.95 208.89 975.84 191.72 968.62 174.54 957.15 176.24 940.16 178.23 923.16 180.18 906.17 181.77 889.18 182.75 872.19 182.95 855.2 182.35 838.21 181.04 821.22 179.23 804.22 177.22 787.23 175.34 770.24 173.89 753.25 173.11 736.26 173.12 719.27 173.93 702.27 175.4 685.28 177.29 668.29 179.3 651.3 181.09 634.31 182.38 617.32 182.96 600.32 182.73 583.33 181.73 566.34 180.12 549.35 178.16 532.36 176.18 515.37 174.49 498.38 173.38 481.38 173.01 464.39 173.46 447.4 174.64 430.41 176.37 413.42 178.37 396.43 180.3 379.43 181.86 362.44 182.79 345.45 182.94 328.46 182.28 311.47 180.93 294.48 179.1 277.48 177.09 260.49 175.22 243.5 173.81 226.51 173.08 209.52 173.15 192.53 174.01 175.53 175.51 158.54 177.43 141.55 179.43 124.56 181.2 107.57 182.45 90.58 182.97 73.59 182.68 56.59 181.63 39.6 179.99 22.61 178.03 5.62 176.05 -11.36 174.4 -28.35 173.33 -45.35 173.02 -62.34 173.52 -79.33 174.74 -96.32 176.5 -113.31 178.5 -130.3" stroke-dasharray="0 16" transform="rotate(4.346153846153847, 711, 400)" opacity="0.87"></path><path d="M196.92 -107.65Q213.22 -106.88 229.51 -106.74 245.81 -107.23 262.1 -108.3 278.4 -109.83 294.69 -111.65 310.98 -113.57 327.28 -115.38 343.57 -116.86 359.87 -117.86 376.16 -118.27 392.46 -118.04 408.75 -117.2 425.05 -115.85 441.34 -114.12 457.64 -112.21 473.93 -110.34 490.23 -108.7 506.52 -107.48 522.82 -106.81 539.11 -106.78 555.41 -107.37 571.7 -108.53 588 -110.12 604.29 -111.98 620.59 -113.89 636.88 -115.65 653.17 -117.06 669.47 -117.97 685.76 -118.28 702.06 -117.94 718.35 -117.01 734.65 -115.57 750.94 -113.8 767.24 -111.89 783.53 -110.04 799.83 -108.46 816.12 -107.33 832.42 -106.76 848.71 -106.83 865.01 -107.53 881.3 -108.77 897.6 -110.42 913.89 -112.3 930.19 -114.21 946.48 -115.92 962.77 -117.26 979.07 -118.07 995.36 -118.26 1011.66 -117.82 1027.95 -116.8 1044.25 -115.29 1060.54 -113.48 1076.84 -111.56 1093.13 -109.75 1109.43 -108.23 1125.72 -107.19 1142.02 -106.73 1158.31 -106.91 1174.61 -107.7 1190.9 -109.02 1207.2 -110.73 1223.49 -112.63 1239.79 -114.51 1253.32 -98.71 1262.37 -82.9 1265.56 -67.1 1262.41 -51.29 1253.4 -35.49 1239.88 -19.68 1223.9 -3.87 1207.85 11.92 1194.16 27.73 1184.89 43.53 1181.44 59.34 1184.32 75.15 1193.11 90.95 1206.47 106.76 1222.4 122.56 1238.49 138.37 1252.32 154.17 1261.81 169.98 1265.53 185.79 1262.92 201.59 1254.36 217.4 1241.16 233.2 1225.29 249.01 1209.15 264.82 1195.18 280.62 1185.47 296.43 1181.49 312.23 1183.83 328.04 1192.16 343.84 1205.2 359.65 1221 375.46 1237.18 391.26 1251.29 407.07 1261.22 422.87 1265.46 438.68 1263.38 454.49 1255.29 470.29 1242.41 486.1 1226.68 501.9 1210.47 517.71 1196.23 533.51 1186.09 549.32 1181.58 565.13 1183.39 580.93 1191.24 596.74 1203.96 612.54 1219.61 628.35 1235.85 644.16 1250.23 659.96 1260.58 675.77 1265.34 691.57 1263.8 707.38 1256.19 723.18 1243.65 738.99 1228.07 754.8 1211.81 770.6 1197.3 786.41 1186.74 802.21 1181.72 818.02 1182.99 833.83 1190.37 849.63 1202.73 865.44 1218.22 881.24 1234.51 897.05 1218.31 911.47 1202.1 926 1185.9 939.05 1169.69 949.16 1153.49 955.24 1137.28 956.59 1121.08 953.08 1104.87 945.1 1088.67 933.52 1072.47 919.62 1056.26 904.93 1040.06 891.08 1023.85 879.59 1007.65 871.73 991.44 868.37 975.24 869.87 959.04 876.07 942.83 886.3 926.63 899.41 910.42 913.96 894.22 928.35 878.01 941 861.81 950.5 845.61 955.81 829.4 956.34 813.2 952.03 796.99 943.37 780.79 931.3 764.58 917.15 748.38 902.49 732.17 888.94 715.97 877.98 699.77 870.83 683.56 868.28 667.36 870.6 651.15 877.54 634.95 888.34 618.74 901.8 602.54 916.45 586.34 930.65 570.13 942.86 553.93 951.71 537.72 956.24 521.52 955.94 505.31 950.85 489.11 941.54 472.91 929.01 456.7 914.67 440.5 900.08 424.29 886.87 408.09 876.48 391.88 870.06 375.68 868.33 359.47 871.46 343.27 879.12 327.07 890.47 310.86 904.24 294.66 918.92 278.45 932.89 262.25 944.62 246.04 952.8 229.84 956.53 213.64 955.41 197.43 949.56 199 933.04 200.5 916.52 201.69 900 202.41 883.48 202.53 866.96 202.04 850.44 201.02 833.92 199.62 817.4 198.05 800.88 196.55 784.37 195.34 767.85 194.6 751.33 194.45 734.81 194.91 718.29 195.91 701.77 197.3 685.25 198.87 668.73 200.38 652.21 201.61 635.69 202.37 619.18 202.54 602.66 202.11 586.14 201.13 569.62 199.75 553.1 198.19 536.58 196.67 520.06 195.42 503.54 194.64 487.02 194.44 470.5 194.85 453.99 195.81 437.47 197.17 420.95 198.74 404.43 200.26 387.91 201.52 371.39 202.33 354.87 202.55 338.35 202.17 321.83 201.23 305.32 199.88 288.8 198.32 272.28 196.79 255.76 195.51 239.24 194.69 222.72 194.43 206.2 194.79 189.68 195.71 173.16 197.05 156.64 198.6 140.13 200.14 123.61 201.43 107.09 202.28 90.57 202.56 74.05 202.22 57.53 201.33 41.01 200.01 24.49 198.46 7.97 196.91 -8.54 195.61 -25.05 194.74 -41.57 194.43 -58.09 194.74 -74.61 195.61 -91.13 196.92 -107.65" stroke-dasharray="0 9" transform="rotate(8.692307692307693, 711, 400)" opacity="0.51"></path><path d="M216.54 -85.52Q232.46 -85.54 248.37 -86.22 264.29 -87.48 280.2 -89.21 296.12 -91.22 312.04 -93.3 327.95 -95.26 343.87 -96.88 359.78 -98.01 375.7 -98.52 391.62 -98.37 407.53 -97.57 423.45 -96.21 439.36 -94.41 455.28 -92.37 471.2 -90.29 487.11 -88.39 503.03 -86.85 518.94 -85.84 534.86 -85.45 550.78 -85.73 566.69 -86.64 582.61 -88.1 598.52 -89.96 614.44 -92.02 630.36 -94.08 646.27 -95.93 662.19 -97.38 678.1 -98.28 694.02 -98.54 709.93 -98.14 725.85 -97.11 741.77 -95.56 757.68 -93.65 773.6 -91.57 789.51 -89.53 805.43 -87.74 821.35 -86.39 837.26 -85.61 853.18 -85.48 869.09 -86.01 885.01 -87.14 900.93 -88.78 916.84 -90.74 932.76 -92.82 948.67 -94.83 964.59 -96.54 980.51 -97.8 996.42 -98.46 1012.34 -98.46 1028.25 -97.81 1044.17 -96.57 1060.09 -94.86 1076 -92.86 1091.92 -90.77 1107.83 -88.8 1123.75 -87.17 1139.67 -86.02 1155.58 -85.48 1171.5 -85.6 1187.41 -86.38 1203.33 -87.72 1219.25 -89.5 1235.16 -91.54 1242.32 -76.12 1244.01 -60.7 1240.01 -45.29 1230.85 -29.87 1217.83 -14.46 1202.74 0.95 1187.69 16.36 1174.77 31.78 1165.77 47.19 1161.94 62.61 1163.82 78.02 1171.14 93.44 1182.89 108.86 1197.44 124.27 1212.75 139.69 1226.71 155.1 1237.38 170.52 1243.26 185.93 1243.55 201.35 1238.2 216.76 1227.96 232.18 1214.25 247.59 1198.97 263.01 1184.26 278.43 1172.14 293.84 1164.32 309.26 1161.87 324.67 1165.14 340.09 1173.66 355.5 1186.27 370.92 1201.2 386.33 1216.38 401.75 1229.7 417.17 1239.3 432.58 1243.87 448 1242.75 463.41 1236.1 478.83 1224.86 494.24 1210.57 509.66 1195.24 525.07 1180.98 540.49 1169.78 555.9 1163.2 571.32 1162.15 586.74 1166.77 602.15 1176.43 617.57 1189.79 632.98 1204.97 648.4 1219.89 663.81 1232.45 679.23 1240.92 694.64 1244.12 710.06 1241.61 725.47 1233.72 740.89 1221.57 756.31 1206.83 771.72 1191.56 787.14 1177.88 802.55 1167.69 817.97 1162.41 833.38 1162.77 848.8 1168.71 864.21 1179.43 879.63 1193.41 895.04 1178.2 908.54 1162.99 920.35 1147.77 929.27 1132.56 934.4 1117.34 935.22 1102.13 931.65 1086.92 924.03 1071.7 913.16 1056.49 900.14 1041.28 886.29 1026.06 873.01 1010.85 861.67 995.63 853.42 980.42 849.08 965.21 849.12 949.99 853.51 934.78 861.82 919.56 873.2 904.35 886.49 889.14 900.34 873.92 913.34 858.71 924.17 843.49 931.73 828.28 935.24 813.07 934.36 797.85 929.16 782.64 920.19 767.43 908.34 752.21 894.84 737 881.04 721.78 868.36 706.57 858.08 691.36 851.25 676.14 848.57 660.93 850.31 645.71 856.28 630.5 865.89 615.29 878.15 600.07 891.82 584.86 905.51 569.65 917.83 554.43 927.51 539.22 933.59 524 935.43 508.79 932.85 493.58 926.12 478.36 915.92 463.15 903.28 447.93 889.49 432.72 875.96 417.51 864.06 402.29 855 387.08 849.71 371.86 848.71 356.65 852.12 341.44 859.59 326.22 870.35 311.01 883.31 295.8 897.16 280.58 910.48 265.37 921.92 250.15 930.32 234.94 934.82 219.73 934.96 220.79 919.01 221.61 903.07 222.07 887.12 222.09 871.18 221.69 855.23 220.91 839.29 219.87 823.34 218.7 807.4 217.58 791.45 216.65 775.51 216.05 759.56 215.86 743.62 216.1 727.67 216.75 711.73 217.71 695.78 218.84 679.84 220 663.89 221.02 647.95 221.76 632 222.11 616.06 222.03 600.11 221.53 584.17 220.68 568.22 219.59 552.28 218.42 536.33 217.33 520.39 216.47 504.44 215.96 488.5 215.88 472.55 216.22 456.6 216.96 440.66 217.97 424.71 219.13 408.77 220.27 392.82 221.23 376.88 221.88 360.93 222.13 344.99 221.95 329.04 221.35 313.1 220.43 297.15 219.3 281.21 218.14 265.26 217.09 249.32 216.31 233.37 215.9 217.43 215.92 201.48 216.37 185.54 217.18 169.59 218.25 153.65 219.42 137.7 220.53 121.76 221.43 105.81 221.99 89.87 222.13 73.92 221.84 57.98 221.15 42.03 220.16 26.09 219.01 10.14 217.86 -5.79 216.87 -21.74 216.17 -37.68 215.86 -53.63 215.99 -69.57 216.54 -85.52" stroke-dasharray="17 16" transform="rotate(13.038461538461538, 711, 400)" opacity="0.17"></path><path d="M237.31 -64.46Q252.7 -65.39 268.09 -66.89 283.47 -68.83 298.86 -71.01 314.25 -73.24 329.64 -75.31 345.02 -77.02 360.41 -78.21 375.8 -78.78 391.19 -78.66 406.57 -77.87 421.96 -76.49 437.35 -74.64 452.74 -72.5 468.12 -70.26 483.51 -68.14 498.9 -66.33 514.29 -65.01 529.67 -64.29 545.06 -64.24 560.45 -64.87 575.84 -66.13 591.22 -67.88 606.61 -69.97 622 -72.21 637.39 -74.37 652.77 -76.27 668.16 -77.72 683.55 -78.59 698.94 -78.8 714.32 -78.32 729.71 -77.21 745.1 -75.56 760.49 -73.53 775.87 -71.31 791.26 -69.11 806.65 -67.13 822.04 -65.56 837.42 -64.54 852.81 -64.18 868.2 -64.5 883.59 -65.47 898.97 -67.01 914.36 -68.96 929.75 -71.15 945.14 -73.38 960.52 -75.43 975.91 -77.11 991.3 -78.27 1006.69 -78.79 1022.07 -78.63 1037.46 -77.8 1052.85 -76.39 1068.24 -74.52 1083.62 -72.36 1099.01 -70.12 1114.4 -68.02 1129.79 -66.23 1145.17 -64.94 1160.56 -64.26 1175.95 -64.26 1191.34 -64.94 1206.72 -66.22 1222.11 -68 1222.02 -53.01 1216.87 -38.01 1207.34 -23.01 1194.63 -8.01 1180.37 6.98 1166.38 21.97 1154.45 36.97 1146.1 51.97 1142.41 66.97 1143.83 81.97 1150.2 96.96 1160.69 111.96 1173.97 126.96 1188.34 141.96 1201.96 156.96 1213.09 171.95 1220.32 186.95 1222.71 201.95 1219.96 216.95 1212.43 231.95 1201.07 246.94 1187.34 261.94 1172.99 276.94 1159.86 291.94 1149.61 306.94 1143.57 321.93 1142.5 336.93 1146.54 351.93 1155.18 366.93 1167.3 381.93 1181.37 396.92 1195.58 411.92 1208.12 426.92 1217.38 441.92 1222.19 456.92 1221.93 471.91 1216.62 486.91 1206.96 501.91 1194.17 516.91 1179.89 531.91 1165.95 546.9 1154.11 561.9 1145.9 576.9 1142.37 591.9 1143.97 606.9 1150.48 621.89 1161.09 636.89 1174.43 651.89 1188.8 666.89 1202.37 681.89 1213.4 696.88 1220.47 711.88 1222.7 726.88 1219.79 741.88 1212.11 756.88 1200.65 771.87 1186.87 786.87 1172.53 801.87 1159.47 816.87 1149.34 831.87 1143.45 846.86 1142.55 861.86 1146.76 876.86 1155.52 891.86 1141.23 902.24 1126.94 909.75 1112.65 913.68 1098.37 913.67 1084.08 909.71 1069.79 902.19 1055.5 891.79 1041.21 879.49 1026.92 866.45 1012.63 853.88 998.34 842.96 984.05 834.7 969.76 829.88 955.47 828.96 941.18 832.01 926.89 838.75 912.6 848.56 898.31 860.5 884.02 873.48 869.73 886.27 855.44 897.68 841.15 906.64 826.86 912.31 812.57 914.17 798.28 912.04 783.99 906.12 769.7 896.96 755.41 885.42 741.12 872.58 726.83 859.64 712.54 847.8 698.25 838.18 683.96 831.68 669.67 828.89 655.38 830.09 641.09 835.16 626.8 843.63 612.51 854.7 598.23 867.35 583.94 880.38 569.65 892.58 555.36 902.8 541.07 910.11 526.78 913.8 512.49 913.53 498.2 909.34 483.91 901.61 469.62 891.06 455.33 878.69 441.04 865.64 426.75 853.14 412.46 842.35 398.17 834.29 383.88 829.71 369.59 829.03 355.3 832.33 341.01 839.28 326.72 849.25 312.43 861.3 298.14 874.3 283.85 887.04 269.56 898.32 248.37 902.19 241.7 882.02 241.65 866.75 241.32 851.48 240.76 836.22 240.04 820.95 239.25 805.69 238.49 790.42 237.86 775.15 237.44 759.89 237.28 744.62 237.4 729.36 237.79 714.09 238.4 698.83 239.15 683.56 239.94 668.29 240.68 653.03 241.26 637.76 241.62 622.5 241.71 607.23 241.51 591.96 241.06 576.7 240.41 561.43 239.64 546.17 238.85 530.9 238.15 515.64 237.61 500.37 237.32 485.1 237.31 469.84 237.57 454.57 238.08 439.31 238.77 424.04 239.56 408.77 240.33 393.51 241 378.24 241.48 362.98 241.7 347.71 241.64 332.45 241.31 317.18 240.74 301.91 240.02 286.65 239.23 271.38 238.47 256.12 237.84 240.85 237.43 225.58 237.28 210.32 237.41 195.05 237.81 179.79 238.42 164.52 239.17 149.26 239.97 133.99 240.7 118.72 241.28 103.46 241.63 88.19 241.71 72.93 241.5 57.66 241.04 42.4 240.38 27.13 239.61 11.86 238.83 -3.39 238.13 -18.66 237.6 -33.92 237.32 -49.19 237.31 -64.46" stroke-dasharray="16 15" transform="rotate(17.384615384615387, 711, 400)" opacity="0.16"></path><path d="M258.77 -44.83Q273.46 -46.61 288.16 -48.77 302.85 -51.11 317.55 -53.45 332.24 -55.57 346.93 -57.31 361.63 -58.5 376.32 -59.05 391.02 -58.91 405.71 -58.1 420.41 -56.67 435.1 -54.76 449.8 -52.53 464.49 -50.17 479.18 -47.87 493.88 -45.85 508.57 -44.26 523.27 -43.25 537.96 -42.91 552.66 -43.25 567.35 -44.26 582.05 -45.85 596.74 -47.87 611.43 -50.16 626.13 -52.53 640.82 -54.76 655.52 -56.67 670.21 -58.1 684.91 -58.91 699.6 -59.05 714.29 -58.5 728.99 -57.31 743.68 -55.57 758.38 -53.45 773.07 -51.11 787.77 -48.77 802.46 -46.61 817.16 -44.83 831.85 -43.58 846.54 -42.96 861.24 -43.03 875.93 -43.78 890.63 -45.15 905.32 -47.02 920.02 -49.23 934.71 -51.59 949.4 -53.9 964.1 -55.96 978.79 -57.59 993.49 -58.67 1008.18 -59.08 1022.88 -58.8 1037.57 -57.86 1052.27 -56.32 1066.96 -54.33 1081.65 -52.06 1096.35 -49.69 1111.04 -47.44 1125.74 -45.49 1140.43 -44.01 1155.13 -43.13 1169.82 -42.92 1188.65 -36.71 1182.75 -15.51 1170.29 -0.99 1156.86 13.51 1144.03 28.03 1133.3 42.54 1125.93 57.06 1122.78 71.58 1124.22 86.09 1130.08 100.61 1139.67 115.12 1151.87 129.64 1165.26 144.15 1178.27 158.67 1189.37 173.19 1197.27 187.7 1201.04 202.22 1200.24 216.73 1194.97 231.25 1185.84 245.76 1173.92 260.28 1160.6 274.8 1147.45 289.31 1136 303.83 1127.59 318.34 1123.2 332.86 1123.36 347.37 1128.03 361.89 1136.68 376.4 1148.29 390.92 1161.51 405.44 1174.78 419.95 1186.55 434.47 1195.45 448.98 1200.44 463.5 1200.93 478.01 1196.86 492.53 1188.72 507.05 1177.44 521.56 1164.36 536.08 1151 550.59 1138.93 565.11 1129.56 579.62 1123.98 594.14 1122.85 608.65 1126.3 623.17 1133.93 637.69 1144.84 652.2 1157.75 666.72 1171.17 681.23 1183.51 695.75 1193.33 710.26 1199.49 724.78 1201.26 739.3 1198.43 753.81 1191.35 768.33 1180.82 782.84 1168.1 797.36 1154.66 811.87 1142.08 826.39 1131.83 840.91 1125.11 855.42 1122.7 869.94 1124.89 884.45 1111.4 890.33 1097.9 892.83 1084.41 891.76 1070.91 887.2 1057.42 879.54 1043.92 869.43 1030.43 857.75 1016.93 845.49 1003.44 833.7 989.94 823.39 976.45 815.44 962.95 810.54 949.46 809.1 935.96 811.25 922.47 816.79 908.97 825.27 895.48 835.95 881.99 847.91 868.49 860.14 855 871.59 841.5 881.27 828.01 888.36 814.51 892.26 801.02 892.62 787.52 889.42 774.03 882.93 760.53 873.71 747.04 862.54 733.54 850.38 720.05 838.28 706.55 827.27 693.06 818.28 679.56 812.1 666.07 809.25 652.57 809.96 639.08 814.2 625.58 821.58 612.09 831.48 598.59 843.05 585.1 855.3 571.6 867.18 558.11 877.68 544.61 885.89 531.12 891.12 517.62 892.91 504.13 891.11 490.63 885.88 477.14 877.67 463.64 867.17 450.15 855.29 436.65 843.04 423.16 831.47 409.66 821.57 396.17 814.19 382.67 809.96 369.18 809.25 355.68 812.1 342.19 818.29 328.69 827.27 315.2 838.29 301.7 850.39 288.21 862.55 268 871.08 261.21 853.94 260.99 839.45 260.65 824.95 260.24 810.45 259.79 795.96 259.37 781.46 259.03 766.96 258.79 752.47 258.7 737.97 258.76 723.47 258.96 708.98 259.29 694.48 259.69 679.98 260.13 665.49 260.56 650.99 260.92 636.49 261.17 622 261.29 607.5 261.25 593.01 261.06 578.51 260.76 564.01 260.36 549.52 259.92 535.02 259.49 520.52 259.11 506.03 258.85 491.53 258.71 477.03 258.73 462.54 258.89 448.04 259.19 433.54 259.57 419.05 260.01 404.55 260.45 390.05 260.83 375.56 261.11 361.06 261.27 346.56 261.27 332.07 261.13 317.57 260.85 303.07 260.47 288.58 260.04 274.08 259.6 259.59 259.21 245.09 258.91 230.59 258.73 216.1 258.71 201.6 258.83 187.1 259.09 172.61 259.46 158.11 259.89 143.61 260.33 129.12 260.73 114.62 261.05 100.12 261.24 85.63 261.29 71.13 261.18 56.63 260.94 42.14 260.59 27.64 260.16 13.14 259.72 -1.34 259.31 -15.84 258.98 -30.34 258.77 -44.83" stroke-dasharray="17 4" transform="rotate(21.730769230769234, 711, 400)" opacity="0.67"></path><path d="M280.24 -26.73Q294.11 -29.09 307.97 -31.56 321.83 -33.96 335.7 -36.08 349.56 -37.76 363.42 -38.88 377.28 -39.34 391.15 -39.11 405.01 -38.21 418.87 -36.71 432.74 -34.73 446.6 -32.41 460.46 -29.94 474.33 -27.52 488.19 -25.33 502.05 -23.54 515.92 -22.29 529.78 -21.69 543.64 -21.77 557.5 -22.53 571.37 -23.92 585.23 -25.82 599.09 -28.08 612.96 -30.53 626.82 -32.98 640.68 -35.23 654.55 -37.12 668.41 -38.49 682.27 -39.23 696.13 -39.29 710 -38.67 723.86 -37.41 737.72 -35.61 751.59 -33.41 765.45 -30.98 779.31 -28.51 793.18 -26.2 807.04 -24.23 820.9 -22.74 834.77 -21.86 848.63 -21.65 862.49 -22.14 876.35 -23.27 890.22 -24.97 904.08 -27.1 917.94 -29.49 931.81 -31.97 945.67 -34.33 959.53 -36.39 973.4 -37.98 987.26 -39 1001.12 -39.35 1014.99 -39.01 1028.85 -38.01 1042.71 -36.42 1056.57 -34.36 1070.44 -32.01 1084.3 -29.54 1098.16 -27.14 1112.03 -25 1125.89 -23.29 1139.75 -22.15 1155.31 -14.78 1144.85 6.03 1132.36 19.98 1120.83 33.92 1111.52 47.87 1105.4 61.81 1103.13 75.76 1104.96 89.7 1110.68 103.65 1119.69 117.59 1131.03 131.54 1143.49 145.49 1155.73 159.43 1166.46 173.38 1174.52 187.32 1179.05 201.27 1179.58 215.21 1176.05 229.16 1168.83 243.1 1158.69 257.05 1146.72 271 1134.19 284.94 1122.44 298.89 1112.72 312.83 1106.07 326.78 1103.21 340.72 1104.43 354.67 1109.6 368.61 1118.18 382.56 1129.24 396.51 1141.62 410.45 1153.98 424.4 1165 438.34 1173.52 452.29 1178.63 466.23 1179.77 480.18 1176.82 494.12 1170.11 508.07 1160.34 522.01 1148.56 535.96 1136.03 549.91 1124.08 563.85 1113.99 577.8 1106.84 591.74 1103.38 605.69 1103.99 619.63 1108.6 633.58 1116.72 647.52 1127.49 661.47 1139.75 675.42 1152.19 689.36 1163.5 703.31 1172.45 717.25 1178.11 731.2 1179.86 745.14 1177.51 759.09 1171.32 773.03 1161.95 786.98 1150.4 800.93 1137.89 814.87 1125.77 828.82 1115.33 842.76 1107.68 856.71 1103.64 870.65 1090.78 871.56 1077.93 869.27 1065.07 863.94 1052.22 856.01 1039.36 846.09 1026.5 834.95 1013.65 823.46 1000.79 812.52 987.94 802.99 975.08 795.6 962.22 790.93 949.37 789.35 936.51 790.98 923.66 795.7 910.8 803.13 897.94 812.7 885.09 823.65 872.23 835.14 859.38 846.27 846.52 856.17 833.67 864.06 820.81 869.33 807.95 871.57 795.1 870.61 782.24 866.52 769.39 859.61 756.53 850.43 743.67 839.7 730.82 828.25 717.96 816.97 705.11 806.75 692.25 798.38 679.39 792.52 666.54 789.62 653.68 789.91 640.83 793.37 627.97 799.73 615.12 808.48 602.26 818.96 589.4 830.33 576.55 841.72 563.69 852.23 550.84 861.05 537.98 867.48 525.12 871.02 512.27 871.4 499.41 868.59 486.56 862.81 473.7 854.5 460.84 844.32 447.99 833.07 435.13 821.61 422.28 810.84 409.42 801.61 396.57 794.63 383.71 790.45 370.85 789.4 358 791.55 345.14 796.74 332.29 804.57 319.43 814.42 306.57 825.52 287.27 835.67 280.75 820.66 280.65 807 280.53 793.33 280.41 779.66 280.3 765.99 280.21 752.32 280.15 738.66 280.12 724.99 280.14 711.32 280.19 697.65 280.28 683.99 280.39 670.32 280.51 656.65 280.63 642.98 280.74 629.31 280.81 615.65 280.86 601.98 280.87 588.31 280.83 574.64 280.76 560.98 280.66 547.31 280.55 533.64 280.43 519.97 280.31 506.3 280.22 492.64 280.15 478.97 280.12 465.3 280.13 451.63 280.18 437.97 280.27 424.3 280.37 410.63 280.49 396.96 280.61 383.3 280.72 369.63 280.8 355.96 280.85 342.29 280.87 328.62 280.84 314.96 280.77 301.29 280.68 287.62 280.57 273.95 280.44 260.29 280.33 246.62 280.23 232.95 280.16 219.28 280.13 205.61 280.13 191.95 280.17 178.28 280.25 164.61 280.36 150.94 280.48 137.28 280.6 123.61 280.71 109.94 280.79 96.27 280.85 82.6 280.87 68.94 280.85 55.27 280.79 41.6 280.7 27.93 280.58 14.27 280.46 0.6 280.34 -13.06 280.24 -26.73" stroke-dasharray="4 6" transform="rotate(26.076923076923077, 711, 400)" opacity="0.28"></path><path d="M301.13 -9.88Q314.08 -12.42 327.03 -14.79 339.98 -16.82 352.93 -18.37 365.89 -19.32 378.84 -19.62 391.79 -19.23 404.74 -18.19 417.69 -16.57 430.65 -14.48 443.6 -12.07 456.55 -9.52 469.5 -7 482.45 -4.7 495.4 -2.76 508.36 -1.34 521.31 -0.54 534.26 -0.4 547.21 -0.94 560.16 -2.13 573.11 -3.87 586.07 -6.04 599.02 -8.5 611.97 -11.06 624.92 -13.54 637.87 -15.78 650.82 -17.6 663.78 -18.89 676.73 -19.54 689.68 -19.52 702.63 -18.83 715.58 -17.51 728.54 -15.65 741.49 -13.4 754.44 -10.9 767.39 -8.35 780.34 -5.9 793.29 -3.75 806.25 -2.04 819.2 -0.89 832.15 -0.39 845.1 -0.57 858.05 -1.41 871 -2.87 883.96 -4.83 896.91 -7.15 909.86 -9.68 922.81 -12.22 935.76 -14.62 948.71 -16.68 961.67 -18.27 974.62 -19.27 987.57 -19.62 1000.52 -19.29 1013.47 -18.29 1026.42 -16.71 1039.38 -14.66 1052.33 -12.27 1065.28 -9.72 1078.23 -7.19 1091.18 -4.86 1104.14 -2.9 1117.76 5.63 1107.07 25.98 1097.05 39.26 1089.36 52.54 1084.73 65.83 1083.61 79.11 1086.12 92.39 1092 105.67 1100.69 118.96 1111.35 132.24 1122.94 145.52 1134.35 158.8 1144.46 172.09 1152.29 185.37 1157.1 198.65 1158.41 211.94 1156.09 225.22 1150.38 238.5 1141.82 251.78 1131.24 265.07 1119.67 278.35 1108.23 291.63 1098.02 304.91 1090.04 318.2 1085.06 331.48 1083.56 344.76 1085.68 358.04 1091.23 371.33 1099.66 384.61 1110.15 397.89 1121.7 411.17 1133.18 424.46 1143.47 437.74 1151.59 451.02 1156.75 464.31 1158.44 477.59 1156.51 490.87 1151.13 504.15 1142.84 517.44 1132.43 530.72 1120.91 544 1109.4 557.28 1099.02 570.57 1090.76 583.85 1085.43 597.13 1083.55 610.41 1085.29 623.7 1090.49 636.98 1098.65 650.26 1108.97 663.54 1120.46 676.83 1132 690.11 1142.47 703.39 1150.86 716.68 1156.36 729.96 1158.44 743.24 1156.88 756.52 1151.85 769.81 1143.84 783.09 1133.61 796.37 1122.15 809.65 1110.59 822.94 1100.03 836.22 1091.51 849.5 1079.15 845.91 1066.79 839.77 1054.43 831.52 1042.07 821.75 1029.72 811.14 1017.36 800.45 1005 790.44 992.64 781.82 980.28 775.19 967.92 771.02 955.56 769.62 943.21 771.08 930.85 775.29 918.49 781.96 906.13 790.61 893.77 800.64 881.41 811.33 869.05 821.93 856.7 831.68 844.34 839.9 831.98 845.99 819.62 849.54 807.26 850.29 794.9 848.18 782.54 843.37 770.19 836.19 757.83 827.16 745.47 816.92 733.11 806.18 720.75 795.71 708.39 786.26 696.03 778.48 683.68 772.94 671.32 770.02 658.96 769.94 646.6 772.69 634.24 778.08 621.88 785.74 609.53 795.11 597.17 805.53 584.81 816.28 572.45 826.57 560.09 835.7 547.73 843 535.37 847.97 523.02 850.24 510.66 849.67 498.3 846.28 485.94 840.33 473.58 832.22 461.22 822.55 448.86 811.98 436.51 801.27 424.15 791.18 411.79 782.43 399.43 775.62 387.07 771.25 374.71 769.63 362.35 770.86 350 774.87 337.64 781.36 325.28 789.88 306.8 798.75 300.84 784.86 301.01 772.04 301.18 759.22 301.33 746.4 301.45 733.58 301.52 720.76 301.54 707.95 301.51 695.13 301.43 682.31 301.31 669.49 301.16 656.67 300.99 643.85 300.82 631.04 300.67 618.22 300.55 605.4 300.47 592.58 300.45 579.76 300.47 566.94 300.55 554.13 300.67 541.31 300.82 528.49 300.99 515.67 301.16 502.85 301.32 490.03 301.44 477.21 301.52 464.4 301.54 451.58 301.52 438.76 301.44 425.94 301.33 413.12 301.17 400.3 301.01 387.49 300.84 374.67 300.68 361.85 300.56 349.03 300.48 336.21 300.45 323.39 300.47 310.57 300.54 297.76 300.66 284.94 300.81 272.12 300.98 259.3 301.15 246.48 301.3 233.66 301.43 220.85 301.51 208.03 301.54 195.21 301.53 182.39 301.45 169.57 301.34 156.75 301.19 143.94 301.02 131.12 300.85 118.3 300.7 105.48 300.57 92.66 300.48 79.84 300.45 67.02 300.46 54.21 300.53 41.39 300.64 28.57 300.79 15.75 300.96 2.93 301.13 -9.88" stroke-dasharray="8 5" transform="rotate(30.423076923076923, 711, 400)" opacity="0.72"></path><path d="M321.12 6.31Q333.16 4.05 345.19 2.21 357.22 0.9 369.25 0.21 381.29 0.17 393.32 0.79 405.35 2.03 417.39 3.81 429.42 6.02 441.45 8.52 453.49 11.14 465.52 13.73 477.55 16.1 489.59 18.12 501.62 19.65 513.65 20.59 525.69 20.89 537.72 20.52 549.75 19.51 561.78 17.93 573.82 15.87 585.85 13.46 597.88 10.87 609.92 8.25 621.95 5.78 633.98 3.61 646.02 1.87 658.05 0.69 670.08 0.14 682.12 0.25 694.15 1.01 706.18 2.38 718.22 4.27 730.25 6.56 742.28 9.1 754.31 11.73 766.35 14.28 778.38 16.58 790.41 18.5 802.45 19.91 814.48 20.71 826.51 20.86 838.55 20.35 850.58 19.21 862.61 17.51 874.65 15.36 886.68 12.9 898.71 10.28 910.75 7.68 922.78 5.26 934.81 3.18 946.84 1.56 958.88 0.51 970.91 0.11 982.94 0.36 994.98 1.27 1007.01 2.76 1019.04 4.75 1031.08 7.11 1043.11 9.68 1055.14 12.31 1067.18 14.82 1080.26 24.23 1073.06 43.94 1067.2 56.48 1064.26 69.02 1064.49 81.56 1067.87 94.1 1074.1 106.64 1082.65 119.18 1092.75 131.72 1103.53 144.26 1114.05 156.8 1123.38 169.34 1130.71 181.88 1135.39 194.41 1137.02 206.95 1135.46 219.49 1130.84 232.03 1123.56 244.57 1114.26 257.11 1103.76 269.65 1092.98 282.19 1082.85 294.73 1074.27 307.27 1067.98 319.81 1064.53 332.35 1064.23 344.89 1067.11 357.43 1072.9 369.97 1081.11 382.51 1091.02 395.05 1101.75 407.58 1112.38 420.12 1121.96 432.66 1129.67 445.2 1134.82 457.74 1136.97 470.28 1135.93 482.82 1131.79 495.36 1124.91 507.9 1115.9 520.44 1105.53 532.98 1094.73 545.52 1084.43 558.06 1075.54 570.6 1068.83 583.14 1064.89 595.68 1064.06 608.21 1066.43 620.75 1071.77 633.29 1079.63 645.83 1089.31 658.37 1099.97 670.91 1110.68 683.45 1120.49 695.99 1128.56 708.53 1134.17 721.07 1136.84 733.61 1136.32 746.15 1132.67 758.69 1126.21 771.23 1117.49 783.77 1107.29 796.31 1096.5 808.84 1086.05 821.38 1074.1 814.47 1062.14 805.96 1050.18 796.4 1038.23 786.39 1026.27 776.59 1014.32 767.61 1002.36 760.03 990.41 754.33 978.45 750.88 966.5 749.91 954.54 751.46 942.59 755.45 930.63 761.61 918.68 769.56 906.72 778.79 894.77 788.69 882.81 798.65 870.86 808.03 858.9 816.22 846.95 822.7 834.99 827.05 823.03 829.01 811.08 828.43 799.12 825.37 787.17 820.01 775.21 812.7 763.26 803.91 751.3 794.19 739.35 784.18 727.39 774.5 715.44 765.78 703.48 758.58 691.53 753.36 679.57 750.45 667.62 750.03 655.66 752.14 643.71 756.64 631.75 763.24 619.79 771.52 607.84 780.95 595.88 790.92 583.93 800.81 571.97 809.97 560.02 817.82 548.06 823.86 536.11 827.7 524.15 829.1 512.2 827.96 500.24 824.37 488.29 818.54 476.33 810.86 464.38 801.81 452.42 791.97 440.47 781.97 428.51 772.46 416.55 764.03 404.6 757.24 392.64 752.5 380.69 750.14 368.73 750.29 356.78 752.94 344.82 757.94 327.1 763.25 321.77 749.56 322.18 737.57 322.53 725.58 322.79 713.6 322.94 701.61 322.96 689.62 322.85 677.63 322.63 665.64 322.3 653.66 321.91 641.67 321.47 629.68 321.04 617.69 320.65 605.7 320.34 593.72 320.12 581.73 320.03 569.74 320.06 557.75 320.22 545.76 320.49 533.78 320.85 521.79 321.26 509.8 321.7 497.81 322.12 485.83 322.48 473.84 322.76 461.85 322.92 449.86 322.97 437.87 322.88 425.89 322.67 413.9 322.36 401.91 321.97 389.92 321.55 377.93 321.11 365.95 320.71 353.96 320.38 341.97 320.15 329.98 320.03 317.99 320.05 306.01 320.18 294.02 320.44 282.03 320.78 270.04 321.19 258.05 321.63 246.07 322.05 234.08 322.42 222.09 322.72 210.1 322.9 198.11 322.97 186.13 322.9 174.14 322.71 162.15 322.42 150.16 322.04 138.17 321.62 126.19 321.18 114.2 320.78 102.21 320.43 90.22 320.18 78.23 320.04 66.25 320.03 54.26 320.15 42.27 320.39 30.28 320.72 18.29 321.12 6.31" stroke-dasharray="16 16" transform="rotate(34.769230769230774, 711, 400)" opacity="0.86"></path><path d="M340.35 22.67Q351.53 21.14 362.7 20.18 373.88 19.83 385.05 20.13 396.23 21.05 407.4 22.55 418.58 24.53 429.75 26.88 440.93 29.46 452.1 32.14 463.28 34.75 474.45 37.14 485.63 39.18 496.81 40.75 507.98 41.76 519.16 42.15 530.33 41.9 541.51 41.03 552.68 39.58 563.86 37.63 575.03 35.31 586.21 32.73 597.38 30.06 608.56 27.44 619.73 25.02 630.91 22.95 642.08 21.34 653.26 20.28 664.43 19.84 675.61 20.04 686.78 20.87 697.96 22.28 709.13 24.19 720.31 26.49 731.49 29.05 742.66 31.73 753.84 34.35 765.01 36.79 776.19 38.89 787.36 40.54 798.54 41.65 809.71 42.13 820.89 41.98 832.06 41.2 843.24 39.84 854.41 37.96 865.59 35.68 876.76 33.14 887.94 30.47 899.11 27.83 910.29 25.38 921.46 23.24 932.64 21.55 943.81 20.41 954.99 19.87 966.16 19.97 977.34 20.71 988.52 22.03 999.69 23.87 1010.87 26.12 1022.04 28.65 1033.22 31.31 1046.86 41.07 1045.52 59.92 1044.41 71.66 1046.09 83.4 1050.44 95.14 1057.11 106.88 1065.58 118.63 1075.19 130.37 1085.17 142.11 1094.74 153.85 1103.16 165.59 1109.75 177.34 1114.01 189.08 1115.59 200.82 1114.38 212.56 1110.47 224.3 1104.16 236.05 1095.95 247.79 1086.49 259.53 1076.51 271.27 1066.82 283.01 1058.15 294.76 1051.21 306.5 1046.52 318.24 1044.47 329.98 1045.21 341.72 1048.68 353.46 1054.61 365.21 1062.54 376.95 1071.84 388.69 1081.78 400.43 1091.58 412.17 1100.47 423.92 1107.75 435.66 1112.85 447.4 1115.37 459.14 1115.11 470.88 1112.09 482.63 1106.54 494.37 1098.92 506.11 1089.8 517.85 1079.92 529.59 1070.04 541.34 1060.94 553.08 1053.34 564.82 1047.84 576.56 1044.86 588.3 1044.64 600.05 1047.2 611.79 1052.34 623.53 1059.65 635.27 1068.56 647.01 1078.37 658.75 1088.31 670.5 1097.59 682.24 1105.49 693.98 1111.39 705.72 1114.82 717.46 1115.51 729.21 1113.41 740.95 1108.69 752.69 1101.71 764.43 1093.03 776.17 1083.32 787.92 1071.74 779.3 1060.16 770.1 1048.58 760.83 1037 752.03 1025.42 744.2 1013.84 737.8 1002.26 733.19 990.68 730.64 979.1 730.29 967.52 732.16 955.94 736.15 944.36 742.02 932.78 749.45 921.2 757.99 909.62 767.17 898.04 776.46 886.46 785.31 874.88 793.23 863.3 799.75 851.72 804.51 840.14 807.23 828.56 807.75 816.99 806.05 805.41 802.22 793.83 796.48 782.25 789.16 770.67 780.68 759.09 771.54 747.51 762.24 735.93 753.34 724.35 745.33 712.77 738.68 701.19 733.78 689.61 730.89 678.03 730.2 666.45 731.73 654.87 735.4 643.29 741.01 631.71 748.22 620.13 756.62 608.55 765.74 596.97 775.04 585.39 783.99 573.81 792.09 562.23 798.85 550.65 803.9 539.07 806.95 527.49 807.82 515.91 806.46 504.33 802.94 492.75 797.48 481.17 790.38 469.59 782.05 458.02 772.97 446.44 763.67 434.86 754.67 423.28 746.49 411.7 739.6 400.12 734.41 388.54 731.2 376.96 730.16 365.38 731.35 348.33 731.76 343.46 717.61 343.93 706.4 344.24 695.19 344.38 683.98 344.34 672.78 344.11 661.57 343.71 650.36 343.18 639.15 342.55 627.94 341.89 616.73 341.23 605.52 340.63 594.31 340.13 583.11 339.79 571.9 339.62 560.69 339.63 549.48 339.83 538.27 340.2 527.06 340.71 515.85 341.33 504.64 341.99 493.44 342.65 482.23 343.27 471.02 343.78 459.81 344.15 448.6 344.36 437.39 344.37 426.18 344.2 414.97 343.86 403.77 343.37 392.56 342.77 381.35 342.11 370.14 341.45 358.93 340.82 347.72 340.29 336.51 339.89 325.31 339.65 314.1 339.61 302.89 339.74 291.68 340.06 280.47 340.53 269.26 341.11 258.05 341.76 246.84 342.43 235.64 343.07 224.43 343.62 213.22 344.04 202.01 344.31 190.8 344.39 179.59 344.28 168.38 344 157.17 343.55 145.97 342.99 134.76 342.34 123.55 341.67 112.34 341.03 101.13 340.46 89.92 340.01 78.71 339.71 67.5 339.6 56.3 339.68 45.09 339.93 33.88 340.35 22.67" stroke-dasharray="12 8" transform="rotate(39.11538461538461, 711, 400)" opacity="0.10"></path><path d="M359.34 40.1Q369.77 39.6 380.19 39.7 390.61 40.41 401.04 41.69 411.46 43.47 421.89 45.66 432.31 48.15 442.74 50.81 453.16 53.51 463.59 56.1 474.01 58.46 484.44 60.46 494.86 62 505.29 63 515.71 63.42 526.13 63.22 536.56 62.42 546.98 61.06 557.41 59.21 567.83 56.97 578.26 54.44 588.68 51.77 599.11 49.08 609.53 46.51 619.96 44.2 630.38 42.26 640.81 40.8 651.23 39.88 661.65 39.56 672.08 39.86 682.5 40.74 692.93 42.18 703.35 44.1 713.78 46.39 724.2 48.95 734.63 51.64 745.05 54.32 755.48 56.85 765.9 59.11 776.33 60.98 786.75 62.37 797.17 63.19 807.6 63.42 818.02 63.04 828.45 62.06 838.87 60.54 849.3 58.56 859.72 56.22 870.15 53.63 880.57 50.94 891 48.27 901.42 45.77 911.85 43.56 922.27 41.76 932.69 40.46 943.12 39.72 953.54 39.59 963.97 40.07 974.39 41.13 984.82 42.72 995.24 44.77 1005.67 47.16 1020.47 56.58 1025.62 74.32 1028.77 85.24 1034.07 96.17 1041.15 107.09 1049.52 118.01 1058.59 128.94 1067.72 139.86 1076.28 150.79 1083.66 161.71 1089.34 172.63 1092.93 183.56 1094.18 194.48 1092.99 205.41 1089.45 216.33 1083.81 227.25 1076.47 238.18 1067.94 249.1 1058.81 260.03 1049.73 270.95 1041.34 281.87 1034.22 292.8 1028.87 303.72 1025.67 314.65 1024.84 325.57 1026.45 336.49 1030.37 347.42 1036.34 358.34 1043.93 369.26 1052.61 380.19 1061.77 391.11 1070.78 402.04 1078.99 412.96 1085.84 423.88 1090.84 434.81 1093.64 445.73 1094.04 456.66 1092.02 467.58 1087.72 478.5 1081.45 489.43 1073.63 500.35 1064.82 511.28 1055.63 522.2 1046.72 533.12 1038.7 544.05 1032.15 554.97 1027.51 565.9 1025.11 576.82 1025.13 587.74 1027.55 598.67 1032.22 609.59 1038.8 620.52 1046.83 631.44 1055.75 642.36 1064.94 653.29 1073.74 664.21 1081.54 675.14 1087.79 686.06 1092.07 696.98 1094.05 707.91 1093.61 718.83 1090.78 729.76 1076.74 741.84 1056.56 734.66 1045.4 727.03 1034.23 720.51 1023.07 715.42 1011.9 712.03 1000.74 710.51 989.57 710.93 978.41 713.28 967.24 717.43 956.08 723.18 944.91 730.22 933.75 738.2 922.58 746.71 911.42 755.31 900.26 763.56 889.09 771.04 877.93 777.36 866.76 782.2 855.6 785.32 844.43 786.55 833.27 785.82 822.1 783.19 810.94 778.77 799.77 772.81 788.61 765.6 777.44 757.51 766.28 748.96 755.11 740.38 743.95 732.22 732.79 724.9 721.62 718.78 710.46 714.19 699.29 711.36 688.13 710.43 676.96 711.45 665.8 714.37 654.63 719.04 643.47 725.22 632.3 732.59 621.14 740.78 609.97 749.36 598.81 757.9 587.64 765.96 576.48 773.12 565.31 779.02 554.15 783.35 542.99 785.9 531.82 786.53 520.66 785.21 509.49 782.01 498.33 777.09 487.16 770.71 476 763.19 464.83 754.91 453.67 746.3 442.5 737.81 431.34 729.87 420.17 722.87 409.01 717.2 397.84 713.12 386.68 710.86 370.26 706.09 365.49 691.15 365.76 680.65 365.8 670.15 365.61 659.64 365.2 649.14 364.6 638.64 363.86 628.14 363.02 617.64 362.14 607.14 361.28 596.64 360.52 586.14 359.89 575.64 359.44 565.14 359.21 554.64 359.21 544.14 359.44 533.64 359.88 523.14 360.51 512.63 361.27 502.13 362.13 491.63 363 481.13 363.85 470.63 364.59 460.13 365.2 449.63 365.61 439.13 365.8 428.63 365.76 418.13 365.49 407.63 365.01 397.13 364.36 386.63 363.57 376.13 362.71 365.62 361.84 355.12 361.01 344.62 360.28 334.12 359.71 323.62 359.33 313.12 359.18 302.62 359.26 292.12 359.57 281.62 360.08 271.12 360.76 260.62 361.56 250.12 362.43 239.62 363.3 229.12 364.12 218.62 364.82 208.11 365.36 197.61 365.7 187.11 365.81 176.61 365.69 166.11 365.35 155.61 364.81 145.11 364.1 134.61 363.28 124.11 362.41 113.61 361.54 103.11 360.74 92.61 360.06 82.11 359.56 71.61 359.25 61.1 359.18 50.6 359.34 40.1" stroke-dasharray="6 14" transform="rotate(43.46153846153847, 711, 400)" opacity="0.68"></path><path d="M378.83 59.39Q388.62 60.02 398.42 61.18 408.22 62.84 418.01 64.91 427.81 67.31 437.61 69.92 447.4 72.62 457.2 75.29 467 77.82 476.79 80.08 486.59 81.97 496.39 83.41 506.18 84.33 515.98 84.69 525.78 84.47 535.57 83.69 545.37 82.38 555.17 80.59 564.96 78.41 574.76 75.95 584.56 73.3 594.35 70.59 604.15 67.95 613.95 65.49 623.74 63.33 633.54 61.56 643.34 60.26 653.13 59.5 662.93 59.3 672.73 59.68 682.52 60.63 692.32 62.08 702.12 63.99 711.91 66.26 721.71 68.79 731.51 71.47 741.3 74.17 751.1 76.77 760.9 79.16 770.69 81.22 780.49 82.86 790.29 84.01 800.08 84.61 809.88 84.64 819.68 84.09 829.47 83 839.27 81.4 849.07 79.38 858.86 77.02 868.66 74.43 878.46 71.74 888.25 69.05 898.05 66.5 907.85 64.2 917.64 62.25 927.44 60.75 937.24 59.75 947.03 59.31 956.83 59.45 966.63 60.16 976.42 61.41 986.22 63.13 996.02 65.26 1005.81 67.7 1008.38 77.82 1012.86 87.94 1018.96 98.06 1026.3 108.18 1034.43 118.3 1042.85 128.42 1051.03 138.54 1058.46 148.66 1064.68 158.78 1069.3 168.9 1072.04 179.01 1072.72 189.13 1071.31 199.25 1067.89 209.37 1062.67 219.49 1055.98 229.61 1048.23 239.73 1039.91 249.85 1031.53 259.97 1023.62 270.09 1016.66 280.21 1011.09 290.33 1007.26 300.45 1005.4 310.57 1005.62 320.69 1007.93 330.81 1012.16 340.93 1018.07 351.05 1025.27 361.17 1033.33 371.29 1041.74 381.41 1049.98 391.53 1057.53 401.65 1063.94 411.77 1068.79 421.89 1071.79 432.01 1072.75 442.13 1071.62 452.25 1068.45 462.37 1063.45 472.49 1056.94 482.61 1049.3 492.73 1041.03 502.85 1032.63 512.97 1024.62 523.09 1017.51 533.21 1011.74 543.33 1007.66 553.45 1005.52 563.57 1005.47 573.69 1007.51 583.81 1011.5 593.93 1017.2 604.05 1024.25 614.17 1032.23 624.29 1040.62 634.41 1048.91 644.53 1056.59 654.65 1063.17 664.77 1068.25 674.89 1071.51 685.01 1072.75 695.13 1065.1 706.73 1047.66 701.97 1037 696.89 1026.34 693.24 1015.68 691.16 1005.02 690.75 994.36 692.04 983.7 694.96 973.04 699.38 962.38 705.1 951.72 711.86 941.07 719.35 930.41 727.24 919.75 735.16 909.09 742.76 898.43 749.68 887.77 755.62 877.11 760.3 866.45 763.52 855.79 765.12 845.13 765.04 834.47 763.27 823.81 759.9 813.15 755.08 802.49 749.04 791.83 742.03 781.17 734.39 770.51 726.46 759.85 718.59 749.19 711.16 738.53 704.49 727.87 698.88 717.21 694.6 706.55 691.84 695.89 690.72 685.23 691.29 674.57 693.53 663.91 697.34 653.25 702.53 642.59 708.89 631.93 716.11 621.27 723.87 610.61 731.82 599.95 739.6 589.3 746.85 578.64 753.24 567.98 758.49 557.32 762.35 546.66 764.65 536 765.28 525.34 764.22 514.68 761.52 504.02 757.29 493.36 751.73 482.7 745.1 472.04 737.68 461.38 729.83 450.72 721.89 440.06 714.23 429.4 707.2 418.74 701.11 408.08 696.24 392.27 686.97 387.23 671.25 387.08 661.38 386.67 651.51 386.03 641.64 385.2 631.78 384.24 621.91 383.2 612.04 382.14 602.17 381.14 592.3 380.26 582.43 379.54 572.56 379.04 562.69 378.78 552.83 378.79 542.96 379.06 533.09 379.57 523.22 380.3 513.35 381.19 503.48 382.2 493.61 383.25 483.75 384.29 473.88 385.25 464.01 386.07 454.14 386.69 444.27 387.09 434.4 387.23 424.53 387.11 414.67 386.74 404.8 386.13 394.93 385.32 385.06 384.37 375.19 383.34 365.32 382.28 355.45 381.27 345.58 380.37 335.72 379.63 325.85 379.09 315.98 378.8 306.11 378.78 296.24 379.01 286.37 379.49 276.5 380.19 266.64 381.06 256.77 382.06 246.9 383.11 237.03 384.15 227.16 385.13 217.29 385.97 207.42 386.62 197.56 387.05 187.69 387.23 177.82 387.15 167.95 386.8 158.08 386.22 148.21 385.44 138.34 384.51 128.47 383.48 118.61 382.42 108.74 381.4 98.87 380.48 89 379.71 79.13 379.15 69.26 378.83 59.39" stroke-dasharray="4 15" transform="rotate(47.80769230769231, 711, 400)" opacity="0.80"></path><path d="M399.5 81.03Q408.77 82.66 418.05 84.69 427.32 87.03 436.6 89.59 445.87 92.26 455.15 94.94 464.42 97.53 473.69 99.91 482.97 102 492.24 103.71 501.52 104.97 510.79 105.73 520.07 105.96 529.34 105.66 538.62 104.83 547.89 103.51 557.17 101.74 566.44 99.61 575.72 97.19 584.99 94.59 594.26 91.9 603.54 89.24 612.81 86.7 622.09 84.4 631.36 82.42 640.64 80.85 649.91 79.73 659.19 79.13 668.46 79.06 677.74 79.53 687.01 80.52 696.28 81.98 705.56 83.87 714.83 86.1 724.11 88.58 733.38 91.22 742.66 93.91 751.93 96.55 761.21 99.02 770.48 101.23 779.76 103.1 789.03 104.54 798.31 105.5 807.58 105.94 816.85 105.84 826.13 105.21 835.4 104.07 844.68 102.47 853.95 100.47 863.23 98.15 872.5 95.61 881.78 92.94 891.05 90.26 900.33 87.66 909.6 85.26 918.87 83.14 928.15 81.4 937.42 80.1 946.7 79.3 955.97 79.03 965.25 79.29 974.52 80.08 983.8 81.37 993.07 83.1 998.59 92.45 1005.2 101.81 1012.54 111.17 1020.2 120.53 1027.77 129.89 1034.83 139.24 1041 148.6 1045.94 157.96 1049.38 167.32 1051.12 176.67 1051.09 186.03 1049.27 195.39 1045.77 204.75 1040.78 214.11 1034.57 223.46 1027.48 232.82 1019.9 242.18 1012.24 251.54 1004.92 260.9 998.35 270.25 992.88 279.61 988.81 288.97 986.36 298.33 985.67 307.69 986.77 317.04 989.61 326.4 994.03 335.76 999.79 345.12 1006.57 354.47 1014 363.83 1021.67 373.19 1029.18 382.55 1036.1 391.91 1042.05 401.26 1046.72 410.62 1049.85 419.98 1051.26 429.34 1050.88 438.7 1048.73 448.05 1044.92 457.41 1039.67 466.77 1033.26 476.13 1026.05 485.49 1018.42 494.84 1010.8 504.2 1003.59 513.56 997.21 522.92 991.98 532.28 988.21 541.63 986.09 550.99 985.74 560.35 987.19 569.71 990.34 579.06 995.04 588.42 1001.02 597.78 1007.95 607.14 1015.46 616.5 1023.14 625.85 1030.56 635.21 1037.32 644.57 1043.06 653.93 1047.45 663.29 1045.77 674.98 1031.24 673.82 1021.2 671.68 1011.16 670.96 1001.12 671.71 991.07 673.89 981.03 677.41 970.99 682.13 960.95 687.86 950.91 694.38 940.87 701.42 930.82 708.71 920.78 715.94 910.74 722.84 900.7 729.13 890.66 734.55 880.62 738.89 870.57 741.98 860.53 743.69 850.49 743.95 840.45 742.76 830.41 740.16 820.37 736.25 810.32 731.2 800.28 725.2 790.24 718.49 780.2 711.34 770.16 704.04 760.12 696.88 750.07 690.14 740.03 684.09 729.99 678.98 719.95 675.01 709.91 672.34 699.87 671.07 689.82 671.25 679.78 672.88 669.74 675.9 659.7 680.18 649.66 685.55 639.61 691.79 629.57 698.66 619.53 705.89 609.49 713.18 599.45 720.24 589.41 726.79 579.36 732.58 569.32 737.36 559.28 740.95 549.24 743.2 539.2 744.02 529.16 743.39 519.11 741.32 509.07 737.9 499.03 733.27 488.99 727.61 478.95 721.14 468.91 714.13 458.86 706.85 448.82 699.6 438.78 692.67 428.74 686.32 418.7 680.83 408.66 676.39 408.49 667.09 408.05 657.79 407.36 648.49 406.46 639.18 405.39 629.88 404.23 620.58 403.02 611.28 401.84 601.97 400.75 592.67 399.81 583.37 399.07 574.07 398.57 564.76 398.35 555.46 398.4 546.16 398.73 536.86 399.33 527.55 400.15 518.25 401.15 508.95 402.28 499.65 403.48 490.34 404.68 481.04 405.82 471.74 406.82 462.43 407.65 453.13 408.25 443.83 408.59 434.53 408.65 425.22 408.42 415.92 407.93 406.62 407.2 397.32 406.26 388.01 405.17 378.71 403.99 369.41 402.79 360.11 401.62 350.8 400.55 341.5 399.65 332.2 398.95 322.9 398.51 313.59 398.33 304.29 398.44 294.99 398.83 285.69 399.47 276.38 400.33 267.08 401.36 257.78 402.51 248.48 403.72 239.17 404.91 229.87 406.02 220.57 407 211.26 407.78 201.96 408.33 192.66 408.62 183.36 408.62 174.05 408.35 164.75 407.81 155.45 407.03 146.15 406.06 136.84 404.95 127.54 403.76 118.24 402.56 108.94 401.41 99.63 400.37 90.33 399.5 81.03" stroke-dasharray="4 5" transform="rotate(52.15384615384615, 711, 400)" opacity="0.30"></path><path d="M421.71 105.06Q430.52 107.39 439.34 109.92 448.16 112.56 456.97 115.21 465.79 117.78 474.61 120.19 483.43 122.35 492.24 124.18 501.06 125.62 509.88 126.62 518.69 127.15 527.51 127.19 536.33 126.73 545.14 125.79 553.96 124.41 562.78 122.63 571.6 120.52 580.41 118.14 589.23 115.58 598.05 112.94 606.86 110.3 615.68 107.75 624.5 105.38 633.31 103.28 642.13 101.51 650.95 100.15 659.77 99.23 668.58 98.79 677.4 98.85 686.22 99.4 695.03 100.42 703.85 101.88 712.67 103.73 721.48 105.9 730.3 108.32 739.12 110.89 747.94 113.55 756.75 116.18 765.57 118.7 774.39 121.03 783.2 123.07 792.02 124.76 800.84 126.05 809.65 126.88 818.47 127.22 827.29 127.07 836.11 126.43 844.92 125.33 853.74 123.79 862.56 121.88 871.37 119.66 880.19 117.2 889.01 114.6 897.82 111.95 906.64 109.33 915.46 106.84 924.28 104.56 933.09 102.58 941.91 100.95 950.73 99.75 959.54 99.01 968.36 98.76 977.18 99 985.99 99.73 992.7 108.38 999.65 117.04 1006.53 125.69 1013 134.35 1018.76 143 1023.52 151.66 1027.07 160.32 1029.23 168.97 1029.91 177.63 1029.06 186.28 1026.73 194.94 1023.04 203.59 1018.15 212.25 1012.29 220.9 1005.76 229.56 998.86 238.21 991.92 246.87 985.26 255.52 979.21 264.18 974.06 272.83 970.05 281.49 967.37 290.15 967.2 307.46 971.47 324.77 975.95 333.42 981.49 342.08 987.81 350.73 994.61 359.39 1001.58 368.04 1008.38 376.7 1014.68 385.35 1020.19 394.01 1024.63 402.66 1027.81 411.32 1029.07 428.63 1025.84 445.94 1021.79 454.6 1016.61 463.25 1010.54 471.91 1003.87 480.56 996.93 489.22 990.03 497.87 983.51 506.53 977.69 515.18 972.83 523.84 969.17 532.49 966.84 549.81 969 567.12 972.59 575.77 977.39 584.43 983.17 593.08 989.66 601.74 996.54 610.39 1003.49 619.05 1010.18 627.7 1016.29 636.36 1008.31 650.15 988.38 653.73 979.06 656.75 969.74 660.82 960.42 665.81 951.1 671.53 941.78 677.78 932.46 684.36 923.15 691.04 913.83 697.57 904.51 703.73 895.19 709.31 885.87 714.11 876.55 717.97 867.24 720.75 857.92 722.36 848.6 722.73 839.28 721.86 829.96 719.78 820.64 716.56 811.32 712.3 802.01 707.17 792.69 701.33 783.37 695 774.05 688.38 764.73 681.72 755.41 675.24 746.1 669.17 736.78 663.72 727.46 659.08 718.14 655.42 708.82 652.85 699.5 651.47 690.18 651.33 680.87 652.42 671.55 654.73 662.23 658.15 652.91 662.58 643.59 667.86 634.27 673.81 624.96 680.21 615.64 686.85 606.32 693.5 597 699.92 587.68 705.89 578.36 711.2 569.04 715.67 559.73 719.14 550.41 721.49 541.09 722.64 531.77 722.55 522.45 721.23 513.13 718.71 503.82 715.08 494.5 710.48 485.18 705.06 475.86 699.02 466.54 692.55 457.22 685.89 447.9 679.27 438.59 672.92 429.27 667.06 428.48 658.27 427.48 649.49 426.32 640.71 425.04 631.93 423.72 623.15 422.41 614.37 421.17 605.59 420.07 596.81 419.15 588.02 418.47 579.24 418.05 570.46 417.91 561.68 418.06 552.9 418.5 544.12 419.2 535.34 420.12 526.56 421.23 517.77 422.48 508.99 423.79 500.21 425.12 491.43 426.39 482.65 427.54 473.87 428.53 465.09 429.3 456.31 429.82 447.52 430.06 438.74 430.02 429.96 429.68 421.18 429.07 412.4 428.23 403.62 427.18 394.84 425.97 386.06 424.68 377.27 423.35 368.49 422.05 359.71 420.85 350.93 419.79 342.15 418.94 333.37 418.32 324.59 417.98 315.81 417.92 307.02 418.16 298.24 418.67 289.46 419.43 280.68 420.41 271.9 421.57 263.12 422.84 254.34 424.16 245.56 425.48 236.78 426.72 227.99 427.84 219.21 428.77 210.43 429.47 201.65 429.92 192.87 430.08 184.09 429.95 175.31 429.54 166.53 428.86 157.74 427.95 148.96 426.86 140.18 425.62 131.4 424.31 122.62 422.99 113.84 421.71 105.06" stroke-dasharray="17 3" transform="rotate(56.5, 711, 400)" opacity="0.80"></path><path d="M445.3 131.04Q462.04 136.22 478.78 141.08 495.52 145.03 512.26 147.61 529.01 148.5 545.75 147.61 562.49 145.03 579.23 141.08 595.97 136.22 612.71 131.04 629.46 126.15 646.2 122.14 662.94 119.48 679.68 118.49 696.42 119.29 713.17 121.78 729.91 125.67 746.65 130.49 763.39 135.67 780.13 140.59 796.88 144.66 813.62 147.41 830.36 148.49 847.1 147.79 863.84 145.38 880.58 141.55 897.33 136.77 914.07 131.59 930.81 126.65 947.55 122.51 964.29 119.69 981.04 118.51 992.91 134.54 1002.28 150.58 1007.62 166.61 1008.05 182.64 1003.5 198.68 994.73 214.71 983.15 230.74 970.64 246.77 959.26 262.81 950.84 278.84 946.76 294.87 947.68 310.9 953.46 326.94 963.15 342.97 975.17 359 987.58 375.03 998.34 391.07 1005.71 407.1 1008.48 423.13 1006.21 439.16 999.27 455.2 988.78 471.23 976.46 487.26 964.3 503.29 954.29 519.33 948.06 535.36 946.62 551.39 950.21 567.43 958.23 583.46 969.4 599.49 981.88 615.52 993.65 631.56 976.6 634.3 959.55 640.89 942.5 650.52 925.46 662.06 908.41 674.13 891.36 685.29 874.32 694.21 857.27 699.82 840.22 701.46 823.18 698.94 806.13 692.54 789.08 683.04 772.04 671.57 754.99 659.49 737.94 648.25 720.9 639.18 703.85 633.37 686.8 631.51 669.76 633.82 652.71 640.02 635.66 649.38 618.61 660.78 601.57 672.86 584.52 684.18 567.47 693.4 550.43 699.4 533.38 701.49 516.33 699.4 499.29 693.39 482.24 684.17 465.19 672.85 448.15 660.77 445.49 644.22 442.66 627.66 440.14 611.11 438.33 594.55 437.51 578 437.84 561.44 439.25 544.89 441.51 528.34 444.26 511.78 447.05 495.23 449.42 478.67 450.99 462.12 451.5 445.57 450.87 429.01 449.21 412.46 446.77 395.9 443.97 379.35 441.25 362.8 439.06 346.24 437.75 329.69 437.55 313.13 438.47 296.58 440.37 280.03 442.95 263.47 445.77 246.92 448.39 230.36 450.38 213.81 451.4 197.26 451.31 180.7 450.1 164.15 447.98 147.59 445.3 131.04" stroke-dasharray="8 13" transform="rotate(60.84615384615385, 711, 400)" opacity="0.59"></path><path d="M469.57 158.09Q485.34 162.68 501.11 166.38 516.89 168.83 532.66 169.76 548.44 169.1 564.21 166.89 579.98 163.37 595.76 158.9 611.53 153.93 627.31 148.97 643.08 144.52 658.85 141.03 674.63 138.86 690.4 138.23 706.18 139.2 721.95 141.68 737.72 145.41 753.5 150.02 769.27 155.03 785.05 159.93 800.82 164.23 816.59 167.49 832.37 169.38 848.14 169.7 863.91 168.42 879.69 165.68 895.46 161.75 911.24 157.03 927.01 152 942.78 147.17 958.56 143.04 974.33 140.02 982.13 154.89 986.43 169.75 986.64 184.62 982.73 199.48 975.24 214.35 965.22 229.21 954.06 244.07 943.3 258.94 934.45 273.8 928.73 288.67 926.94 303.53 929.32 318.4 935.56 333.26 944.77 348.12 955.68 362.99 966.78 377.85 976.51 392.72 983.53 407.58 986.87 422.45 986.05 437.31 981.19 452.17 972.97 467.04 962.53 481.9 951.32 496.77 940.9 511.63 932.72 526.5 927.91 541.36 927.14 556.23 930.52 571.09 937.58 585.95 947.34 600.82 958.44 615.68 943.03 622.23 927.63 631.19 912.22 641.66 896.81 652.57 881.4 662.81 865.99 671.34 850.58 677.29 835.18 680.06 819.77 679.36 804.36 675.27 788.95 668.2 773.54 658.87 758.13 648.23 742.73 637.37 727.32 627.38 711.91 619.28 696.5 613.9 681.09 611.79 665.68 613.16 650.28 617.86 634.87 625.43 619.46 635.09 604.05 645.86 588.64 656.64 573.23 666.34 557.83 673.97 542.42 678.76 527.01 680.21 511.6 678.18 496.19 672.88 480.78 664.84 465.38 654.88 462.45 639.36 459.88 623.83 458.01 608.31 457.12 592.78 457.32 577.26 458.59 561.74 460.75 546.21 463.5 530.69 466.46 515.16 469.21 499.64 471.38 484.11 472.66 468.59 472.87 453.06 471.99 437.54 470.14 422.01 467.57 406.49 464.65 390.96 461.77 375.44 459.34 359.91 457.7 344.39 457.07 328.86 457.54 313.34 459.05 297.81 461.38 282.29 464.22 266.77 467.16 251.24 469.81 235.72 471.78 220.19 472.81 204.67 472.76 189.14 471.62 173.62 469.57 158.09" stroke-dasharray="5 5" transform="rotate(65.1923076923077, 711, 400)" opacity="0.64"></path><path d="M493.44 185.02Q508.1 188.27 522.77 190.33 537.43 191.04 552.09 190.33 566.76 188.27 581.42 185.03 596.08 180.88 610.75 176.19 625.41 171.36 640.07 166.79 654.74 162.88 669.4 159.97 684.06 158.3 698.72 158.02 713.39 159.14 728.05 161.58 742.71 165.13 757.38 169.48 772.04 174.25 786.7 179.05 801.37 183.46 816.03 187.1 830.69 189.66 845.36 190.93 860.02 190.78 874.68 189.25 889.35 186.45 904.01 182.62 918.67 178.11 933.33 173.28 948 168.56 962.66 164.34 965.46 178.11 964.87 191.88 960.96 205.65 954.18 219.42 945.34 233.19 935.46 246.96 925.71 260.73 917.21 274.5 910.97 288.26 907.72 302.03 907.84 315.8 911.3 329.57 917.72 343.34 926.33 357.11 936.13 370.88 945.98 384.65 954.71 398.42 961.31 412.19 965.01 425.96 965.38 439.73 962.36 453.5 956.32 467.27 947.95 481.04 938.25 494.8 928.34 508.57 919.39 522.34 912.44 536.11 908.3 549.88 907.46 563.65 910.02 577.42 915.68 591.19 923.77 604.96 909.95 613.48 896.13 623.03 882.32 632.8 868.5 641.93 854.68 649.66 840.87 655.32 827.05 658.43 813.23 658.72 799.42 656.17 785.6 650.99 771.78 643.62 757.97 634.71 744.15 625.01 730.33 615.35 716.52 606.55 702.7 599.38 688.88 594.45 675.07 592.17 661.25 592.74 647.43 596.12 633.61 602.01 619.8 609.91 605.98 619.15 592.16 628.93 578.35 638.41 564.53 646.79 550.71 653.35 536.9 657.52 523.08 658.95 509.26 657.52 495.45 653.34 481.63 646.79 479.17 632.36 477.45 617.93 476.68 603.5 476.93 589.07 478.19 574.64 480.3 560.21 483.02 545.78 486.03 531.35 488.98 516.92 491.51 502.49 493.35 488.06 494.27 473.63 494.16 459.19 493.03 444.76 491.03 430.33 488.37 415.9 485.38 401.47 482.41 387.04 479.79 372.61 477.84 358.18 476.79 343.75 476.76 329.32 477.74 314.89 479.64 300.46 482.22 286.03 485.18 271.6 488.18 257.17 490.87 242.74 492.92 228.31 494.11 213.88 494.29 199.45 493.44 185.02" stroke-dasharray="16 15" transform="rotate(69.53846153846155, 711, 400)" opacity="0.08"></path><path d="M515.76 210.55Q529.15 212.01 542.54 212.25 555.93 211.28 569.31 209.15 582.7 206.02 596.09 202.1 609.48 197.69 622.87 193.08 636.26 188.61 649.65 184.59 663.03 181.31 676.42 179 689.81 177.82 703.2 177.86 716.59 179.11 729.98 181.48 743.37 184.82 756.75 188.87 770.14 193.36 783.53 197.96 796.92 202.36 810.31 206.23 823.7 209.31 837.08 211.37 850.47 212.27 863.86 211.95 877.25 210.43 890.64 207.82 904.03 204.29 917.42 200.11 936.63 199.63 938.14 216.39 931.69 229.09 923.72 241.79 915 254.49 906.37 267.19 898.68 279.89 892.67 292.59 888.91 305.3 887.78 318 889.38 330.7 893.56 343.4 899.91 356.1 907.82 368.8 916.53 381.5 925.18 394.2 932.94 406.9 939.06 419.61 942.94 432.31 944.22 445.01 942.76 457.71 938.71 470.41 932.46 483.11 924.61 495.81 915.93 508.51 907.26 521.22 899.43 533.92 893.21 546.62 889.19 559.32 887.77 572.02 889.08 584.72 893.01 597.42 880.66 606.08 868.32 614.66 855.98 622.55 843.63 629.2 831.29 634.14 818.95 637.01 806.61 637.62 794.26 635.91 781.92 632.01 769.58 626.2 757.23 618.89 744.89 610.6 732.55 601.9 720.21 593.43 707.86 585.78 695.52 579.48 683.18 575 670.83 572.63 658.49 572.56 646.15 574.79 633.81 579.16 621.46 585.35 609.12 592.94 596.78 601.38 584.43 610.08 572.09 618.42 559.75 625.8 547.4 631.72 535.06 635.74 522.72 637.58 510.38 637.11 498.03 634.37 496.68 621.13 496.22 607.88 496.71 594.64 498.1 581.4 500.26 568.15 502.97 554.91 505.97 541.66 508.98 528.42 511.7 515.17 513.86 501.93 515.26 488.69 515.77 475.44 515.33 462.2 513.98 448.95 511.86 435.71 509.17 422.46 506.18 409.22 503.17 395.97 500.43 382.73 498.23 369.49 496.78 356.24 496.22 343 496.62 329.75 497.92 316.51 500 303.26 502.66 290.02 505.65 276.78 508.67 263.53 511.43 250.29 513.66 237.04 515.16 223.8 515.76 210.55" stroke-dasharray="9 16" transform="rotate(73.88461538461539, 711, 400)" opacity="0.89"></path><path d="M535.65 233.57Q547.63 233.17 559.6 231.75 571.58 229.4 583.55 226.24 595.53 222.48 607.5 218.31 619.48 213.98 631.45 209.73 643.43 205.82 655.4 202.46 667.38 199.86 679.35 198.15 691.33 197.43 703.3 197.76 715.28 199.1 727.26 201.38 739.23 204.48 751.21 208.2 763.18 212.35 775.16 216.68 787.13 220.94 799.11 224.88 811.08 228.29 823.06 230.96 835.03 232.75 847.01 233.54 858.98 233.3 870.96 232.03 882.93 229.81 894.91 226.78 910.45 226.84 907.73 242.2 900.47 253.81 892.83 265.43 885.39 277.04 878.75 288.65 873.42 300.27 869.83 311.88 868.25 323.5 868.82 335.11 871.48 346.73 876.03 358.34 882.11 369.95 889.24 381.57 896.86 393.18 904.38 404.8 911.19 416.41 916.78 428.03 920.69 439.64 922.62 451.25 922.42 462.87 920.1 474.48 915.85 486.1 910 497.71 903.01 509.33 895.43 520.94 887.86 532.56 880.88 544.17 875.06 555.78 870.83 567.4 868.55 579.01 868.39 590.63 857.37 597.9 846.35 604.41 835.34 609.77 824.32 613.68 813.31 615.92 802.29 616.35 791.27 614.95 780.26 611.8 769.24 607.08 758.23 601.07 747.21 594.1 736.19 586.58 725.18 578.95 714.16 571.63 703.15 565.05 692.13 559.58 681.11 555.55 670.1 553.18 659.08 552.61 648.07 553.87 637.05 556.89 626.03 561.49 615.02 567.42 604 574.33 592.99 581.82 581.97 589.46 570.95 596.82 559.94 603.47 548.92 609.03 537.91 613.19 521.41 610.06 516.83 592.48 518.49 580.51 520.77 568.55 523.5 556.58 526.47 544.62 529.44 532.66 532.18 520.69 534.47 508.73 536.14 496.77 537.04 484.8 537.12 472.84 536.37 460.88 534.83 448.91 532.65 436.95 529.97 424.99 527.03 413.02 524.04 401.06 521.25 389.1 518.87 377.13 517.09 365.17 516.04 353.2 515.82 341.24 516.44 329.28 517.85 317.31 519.93 305.35 522.54 293.39 525.45 281.42 528.45 269.46 531.29 257.5 533.75 245.53 535.65 233.57" stroke-dasharray="12 17" transform="rotate(78.23076923076923, 711, 400)" opacity="0.92"></path><path d="M552.84 253.36Q563.32 251.4 573.8 248.75 584.29 245.52 594.77 241.86 605.25 237.93 615.73 233.91 626.21 229.99 636.7 226.34 647.18 223.13 657.66 220.5 668.14 218.58 678.62 217.45 689.11 217.16 699.59 217.72 710.07 219.12 720.55 221.28 731.03 224.11 741.52 227.49 752 231.24 762.48 235.22 772.96 239.23 783.44 243.09 793.93 246.63 804.41 249.69 814.89 252.12 825.37 253.82 835.85 254.72 846.34 254.76 856.82 253.95 867.3 252.32 880 253.69 875.71 267.9 869.16 278.37 862.98 288.85 857.54 299.32 853.19 309.79 850.2 320.27 848.74 330.74 848.92 341.21 850.72 351.69 854.03 362.16 858.64 372.63 864.27 383.11 870.57 393.58 877.14 404.06 883.58 414.53 889.48 425 894.49 435.48 898.28 445.95 900.62 456.42 901.37 466.9 900.48 477.37 898.01 487.84 894.11 498.32 889.01 508.79 883.05 519.26 876.58 529.74 870.02 540.21 863.77 550.68 858.21 561.16 853.7 571.63 850.51 582.1 840.69 587.06 830.86 590.98 821.04 593.66 811.22 595 801.4 594.93 791.58 593.46 781.75 590.64 771.93 586.62 762.11 581.57 752.29 575.72 742.47 569.33 732.65 562.71 722.82 556.14 713 549.93 703.18 544.36 693.36 539.68 683.54 536.11 673.71 533.8 663.89 532.86 654.07 533.34 644.25 535.21 634.43 538.39 624.61 542.73 614.78 548.04 604.96 554.07 595.14 560.55 585.32 567.19 575.5 573.69 565.67 579.74 555.85 585.08 541.82 585.77 539.6 571.47 542.05 560.87 544.8 550.27 547.69 539.66 550.54 529.06 553.17 518.45 555.41 507.85 557.13 497.25 558.22 486.64 558.61 476.04 558.28 465.43 557.25 454.83 555.58 444.23 553.38 433.62 550.77 423.02 547.94 412.42 545.04 401.81 542.27 391.21 539.79 380.6 537.76 370 536.3 359.4 535.51 348.79 535.43 338.19 536.07 327.58 537.39 316.98 539.31 306.38 541.7 295.77 544.43 285.17 547.31 274.56 550.17 263.96 552.84 253.36" stroke-dasharray="10 12" transform="rotate(82.57692307692307, 711, 400)" opacity="0.78"></path><path d="M567.83 269.77Q576.81 266.86 585.79 263.58 594.77 260.06 603.75 256.42 612.73 252.77 621.71 249.26 630.69 246 639.67 243.1 648.65 240.67 657.63 238.79 666.61 237.53 675.59 236.93 684.57 237.01 693.55 237.76 702.53 239.17 711.51 241.18 720.49 243.73 729.47 246.72 738.45 250.05 747.43 253.6 756.41 257.26 765.39 260.88 774.37 264.36 783.35 267.56 792.33 270.38 801.31 272.71 810.29 274.48 819.27 275.62 828.25 276.1 837.23 275.89 843.72 290.07 835.4 310.53 832.2 319.79 830.07 329.05 829.09 338.31 829.33 347.57 830.77 356.83 833.34 366.09 836.91 375.35 841.33 384.61 846.37 393.87 851.8 403.13 857.35 412.39 862.78 421.65 867.8 430.91 872.2 440.17 875.74 449.43 878.28 458.69 879.68 467.95 879.88 477.21 878.88 486.47 876.71 495.73 873.48 504.99 869.34 514.25 864.5 523.51 859.18 532.77 853.64 542.03 848.14 551.29 842.94 560.55 838.3 569.81 829.58 572.17 820.87 573.54 812.16 573.86 803.45 573.12 794.74 571.35 786.02 568.61 777.31 564.99 768.6 560.63 759.89 555.67 751.18 550.29 742.46 544.67 733.75 539.01 725.04 533.51 716.33 528.35 707.62 523.72 698.9 519.78 690.19 516.67 681.48 514.49 664.06 513.72 646.63 516.08 637.92 518.99 629.21 522.76 620.5 527.24 611.79 532.29 603.07 537.73 594.36 543.38 585.65 549.02 576.94 554.47 566.04 546.84 569.81 527.27 572.43 518.08 574.81 508.88 576.85 499.68 578.44 490.49 579.51 481.29 580 472.09 579.9 462.9 579.21 453.7 577.96 444.51 576.22 435.31 574.05 426.11 571.57 416.92 568.9 407.72 566.17 398.52 563.49 389.33 561.01 380.13 558.83 370.93 557.07 361.74 555.81 352.54 555.1 343.34 554.98 334.15 555.46 324.95 556.51 315.76 558.09 306.56 560.11 297.36 562.49 288.17 565.11 278.97 567.83 269.77" stroke-dasharray="15 1" transform="rotate(86.92307692307693, 711, 400)" opacity="0.31"></path><path d="M581.86 283.34Q596.92 276.91 611.98 270.5 627.04 264.75 642.1 260.24 657.16 257.43 672.22 256.62 687.28 257.88 702.34 261.08 717.4 265.9 732.46 271.86 747.52 278.33 762.58 284.67 777.64 290.22 792.7 294.44 807.76 296.87 822.82 297.29 815.6 313.24 810.93 329.19 809.47 345.13 811.42 361.08 816.5 377.03 824.02 392.98 832.92 408.93 841.98 424.88 849.92 440.83 855.65 456.78 858.37 472.73 857.7 488.67 853.74 504.62 847.03 520.57 838.51 536.52 829.37 552.47 814.12 551.87 798.88 548.33 783.63 542.21 768.39 534.14 753.15 524.93 737.9 515.53 722.66 506.89 707.41 499.88 692.17 495.23 676.92 493.4 661.68 494.58 646.43 498.65 631.19 505.2 615.94 513.56 595.59 519.77 595.15 501.1 598.83 485.54 601.01 469.99 601.37 454.44 599.88 438.88 596.73 423.33 592.38 407.77 587.41 392.22 582.52 376.66 578.4 361.11 575.6 345.56 574.53 330 575.34 314.45 577.9 298.89 581.86 283.34" stroke-dasharray="16 17" transform="rotate(91.26923076923077, 711, 400)" opacity="0.85"></path><path d="M596.6 295.16Q608.94 289.69 621.28 284.78 633.61 280.77 645.95 277.95 658.28 276.51 670.62 276.55 682.96 278.08 695.29 280.98 707.63 285.06 719.96 290.01 732.3 295.49 744.63 301.12 756.97 306.49 769.31 311.22 781.64 314.98 793.98 317.5 790.84 330.77 789.89 344.04 791.23 357.3 794.73 370.57 800.04 383.84 806.66 397.11 813.94 410.37 821.18 423.64 827.67 436.91 832.79 450.17 836.04 463.44 837.11 476.71 835.89 489.97 832.5 503.24 827.27 516.51 820.7 529.77 807.72 526.34 794.73 521.21 781.74 514.76 768.75 507.44 755.76 499.77 742.77 492.29 729.78 485.54 716.8 479.98 703.81 476.02 690.82 473.94 677.83 473.88 664.84 475.84 651.85 479.7 638.86 485.16 621.38 489.2 620.07 473.79 622.14 461.03 622.88 448.27 622.23 435.51 620.25 422.75 617.13 409.99 613.18 397.23 608.77 384.47 604.33 371.71 600.3 358.95 597.06 346.2 594.93 333.44 594.11 320.68 594.69 307.92 596.6 295.16" stroke-dasharray="12 12" transform="rotate(95.61538461538461, 711, 400)" opacity="0.98"></path><path d="M613.76 306.76Q623.55 303.03 633.34 299.97 643.13 297.74 652.92 296.42 662.71 296.08 672.5 296.74 682.29 298.37 692.09 300.88 701.88 304.18 711.67 308.1 721.46 312.47 731.25 317.09 741.04 321.75 750.83 326.25 760.62 330.36 770.41 333.92 770.57 344.45 772.11 354.98 774.96 365.51 778.93 376.03 783.77 386.56 789.19 397.09 794.84 407.62 800.38 418.15 805.45 428.68 809.76 439.21 813.02 449.74 815.04 460.27 815.68 470.8 814.92 481.33 805.82 494.84 788.27 492.56 777.68 486.81 767.1 480.84 756.51 474.92 745.93 469.32 735.34 464.3 724.76 460.08 714.18 456.86 703.59 454.78 693.01 453.94 682.42 454.37 671.84 456.05 661.26 458.92 646.51 460.2 643.79 447.51 644.3 437.45 643.87 427.4 642.51 417.35 640.31 407.3 637.4 397.24 633.98 387.19 630.24 377.14 626.42 367.08 622.77 357.03 619.5 346.98 616.83 336.92 614.91 326.87 613.86 316.82 613.76 306.76" stroke-dasharray="12 6" transform="rotate(99.96153846153845, 711, 400)" opacity="0.68"></path><path d="M634.56 319.84Q649.3 316.72 664.03 315.81 678.77 317.22 693.51 320.78 708.25 326.15 722.99 332.77 737.73 339.98 752.46 347.03 756.98 362.63 763.65 378.22 771.54 393.81 779.58 409.4 786.62 424.99 791.71 440.59 785.8 459.73 761.44 454.61 745.4 446.64 729.35 440.18 713.31 435.89 697.27 434.21 681.22 435.29 665.18 439.05 665.62 424.15 663.82 409.25 660.03 394.35 654.78 379.45 648.79 364.54 642.9 349.64 637.92 334.74 634.56 319.84" stroke-dasharray="14 4" transform="rotate(104.3076923076923, 711, 400)" opacity="0.27"></path><path d="M659.36 335.91Q669.32 335.55 679.29 336.25 689.25 337.99 699.22 340.68 709.18 344.21 719.14 348.4 729.11 353.08 739.07 358.03 743.52 368.26 748.5 378.49 753.69 388.73 758.78 398.96 763.44 409.2 767.4 419.43 765.97 431.99 750.85 429.01 740.15 424.27 729.45 420.28 718.75 417.24 708.06 415.27 691.25 409.74 682.67 395.14 679.42 385.27 675.58 375.39 671.39 365.52 667.11 355.65 663.02 345.78 659.36 335.91" stroke-dasharray="17 11" transform="rotate(108.65384615384616, 711, 400)" opacity="0.46"></path></g></svg>