<svg xmlns="http://www.w3.org/2000/svg" version="1.1" xmlns:xlink="http://www.w3.org/1999/xlink" xmlns:svgjs="http://svgjs.dev/svgjs" viewBox="0 0 1422 800"><defs><linearGradient x1="50%" y1="0%" x2="50%" y2="100%" id="oooscillate-grad"><stop stop-color="hsl(206, 75%, 49%)" stop-opacity="1" offset="0%"></stop><stop stop-color="hsl(331, 90%, 56%)" stop-opacity="1" offset="100%"></stop></linearGradient></defs><g stroke-width="1" stroke="url(#oooscillate-grad)" fill="none" stroke-linecap="round"><path d="M 0 1372 Q 355.5 -50 711 400 Q 1066.5 850 1422 1372" stroke-dasharray="1 2" opacity="1.00"></path><path d="M 0 1323 Q 355.5 -50 711 400 Q 1066.5 850 1422 1323" stroke-dasharray="5 4" opacity="0.96"></path><path d="M 0 1274 Q 355.5 -50 711 400 Q 1066.5 850 1422 1274" stroke-dasharray="7 4" opacity="0.93"></path><path d="M 0 1225 Q 355.5 -50 711 400 Q 1066.5 850 1422 1225" stroke-dasharray="7 7" opacity="0.89"></path><path d="M 0 1176 Q 355.5 -50 711 400 Q 1066.5 850 1422 1176" stroke-dasharray="0 9" opacity="0.86"></path><path d="M 0 1127 Q 355.5 -50 711 400 Q 1066.5 850 1422 1127" stroke-dasharray="8 7" opacity="0.82"></path><path d="M 0 1078 Q 355.5 -50 711 400 Q 1066.5 850 1422 1078" stroke-dasharray="5 11" opacity="0.79"></path><path d="M 0 1029 Q 355.5 -50 711 400 Q 1066.5 850 1422 1029" stroke-dasharray="10 7" opacity="0.75"></path><path d="M 0 980 Q 355.5 -50 711 400 Q 1066.5 850 1422 980" stroke-dasharray="9 8" opacity="0.72"></path><path d="M 0 931 Q 355.5 -50 711 400 Q 1066.5 850 1422 931" stroke-dasharray="11 0" opacity="0.68"></path><path d="M 0 882 Q 355.5 -50 711 400 Q 1066.5 850 1422 882" stroke-dasharray="4 7" opacity="0.65"></path><path d="M 0 833 Q 355.5 -50 711 400 Q 1066.5 850 1422 833" stroke-dasharray="10 5" opacity="0.61"></path><path d="M 0 784 Q 355.5 -50 711 400 Q 1066.5 850 1422 784" stroke-dasharray="9 5" opacity="0.58"></path><path d="M 0 735 Q 355.5 -50 711 400 Q 1066.5 850 1422 735" stroke-dasharray="5 11" opacity="0.54"></path><path d="M 0 686 Q 355.5 -50 711 400 Q 1066.5 850 1422 686" stroke-dasharray="2 2" opacity="0.51"></path><path d="M 0 637 Q 355.5 -50 711 400 Q 1066.5 850 1422 637" stroke-dasharray="1 6" opacity="0.47"></path><path d="M 0 588 Q 355.5 -50 711 400 Q 1066.5 850 1422 588" stroke-dasharray="6 1" opacity="0.44"></path><path d="M 0 539 Q 355.5 -50 711 400 Q 1066.5 850 1422 539" stroke-dasharray="11 9" opacity="0.40"></path><path d="M 0 490 Q 355.5 -50 711 400 Q 1066.5 850 1422 490" stroke-dasharray="10 9" opacity="0.37"></path><path d="M 0 441 Q 355.5 -50 711 400 Q 1066.5 850 1422 441" stroke-dasharray="11 2" opacity="0.33"></path><path d="M 0 392 Q 355.5 -50 711 400 Q 1066.5 850 1422 392" stroke-dasharray="5 6" opacity="0.30"></path><path d="M 0 343 Q 355.5 -50 711 400 Q 1066.5 850 1422 343" stroke-dasharray="0 9" opacity="0.26"></path><path d="M 0 294 Q 355.5 -50 711 400 Q 1066.5 850 1422 294" stroke-dasharray="5 2" opacity="0.23"></path><path d="M 0 245 Q 355.5 -50 711 400 Q 1066.5 850 1422 245" stroke-dasharray="5 4" opacity="0.19"></path><path d="M 0 196 Q 355.5 -50 711 400 Q 1066.5 850 1422 196" stroke-dasharray="1 0" opacity="0.16"></path><path d="M 0 147 Q 355.5 -50 711 400 Q 1066.5 850 1422 147" stroke-dasharray="10 2" opacity="0.12"></path><path d="M 0 98 Q 355.5 -50 711 400 Q 1066.5 850 1422 98" stroke-dasharray="6 9" opacity="0.09"></path></g></svg>