<svg xmlns="http://www.w3.org/2000/svg" version="1.1" xmlns:xlink="http://www.w3.org/1999/xlink" xmlns:svgjs="http://svgjs.dev/svgjs" viewBox="0 0 2400 800" opacity="1"><defs><linearGradient x1="50%" y1="0%" x2="50%" y2="100%" id="sssurf-grad"><stop stop-color="hsla(234, 100%, 31%, 1.00)" stop-opacity="1" offset="0%"></stop><stop stop-color="hsla(0, 0%, 0%, 1.00)" stop-opacity="1" offset="100%"></stop></linearGradient></defs><g fill="url(#sssurf-grad)" transform="matrix(1,0,0,1,0,-120.92410278320312)"><path d="M 0 316.2055959749895 Q 450 568.3022751585744 600 356.7141623895718 Q 1050 600.4284121433176 1200 305.84819312365283 Q 1650 602.7899464813619 1800 349.5250200162003 Q 2250 493.7378000933807 2400 324.02155091328035 L 2400 800 L 0 800 L 0 306.344992364098 Z" transform="matrix(1,0,0,1,0,56)" opacity="0.05"></path><path d="M 0 316.2055959749895 Q 450 568.3022751585744 600 356.7141623895718 Q 1050 600.4284121433176 1200 305.84819312365283 Q 1650 602.7899464813619 1800 349.5250200162003 Q 2250 493.7378000933807 2400 324.02155091328035 L 2400 800 L 0 800 L 0 306.344992364098 Z" transform="matrix(1,0,0,1,0,112)" opacity="0.29"></path><path d="M 0 316.2055959749895 Q 450 568.3022751585744 600 356.7141623895718 Q 1050 600.4284121433176 1200 305.84819312365283 Q 1650 602.7899464813619 1800 349.5250200162003 Q 2250 493.7378000933807 2400 324.02155091328035 L 2400 800 L 0 800 L 0 306.344992364098 Z" transform="matrix(1,0,0,1,0,168)" opacity="0.53"></path><path d="M 0 316.2055959749895 Q 450 568.3022751585744 600 356.7141623895718 Q 1050 600.4284121433176 1200 305.84819312365283 Q 1650 602.7899464813619 1800 349.5250200162003 Q 2250 493.7378000933807 2400 324.02155091328035 L 2400 800 L 0 800 L 0 306.344992364098 Z" transform="matrix(1,0,0,1,0,224)" opacity="0.76"></path><path d="M 0 316.2055959749895 Q 450 568.3022751585744 600 356.7141623895718 Q 1050 600.4284121433176 1200 305.84819312365283 Q 1650 602.7899464813619 1800 349.5250200162003 Q 2250 493.7378000933807 2400 324.02155091328035 L 2400 800 L 0 800 L 0 306.344992364098 Z" transform="matrix(1,0,0,1,0,280)" opacity="1.00"></path></g></svg>