<svg xmlns="http://www.w3.org/2000/svg" version="1.1" xmlns:xlink="http://www.w3.org/1999/xlink" xmlns:svgjs="http://svgjs.dev/svgjs" viewBox="0 0 1422 800"><g stroke-width="1" stroke="hsl(231, 63%, 32%)" fill="none" stroke-linecap="round"><line x1="0" y1="0" x2="82" y2="82" opacity="0.05"></line><line x1="164" y1="0" x2="82" y2="82" opacity="0.05"></line><line x1="246" y1="0" x2="164" y2="82" opacity="0.05"></line><line x1="328" y1="0" x2="246" y2="82" opacity="0.05"></line><line x1="328" y1="0" x2="410" y2="82" opacity="0.05"></line><line x1="492" y1="0" x2="410" y2="82" opacity="0.05"></line><line x1="574" y1="0" x2="492" y2="82" opacity="0.05"></line><line x1="656" y1="0" x2="574" y2="82" opacity="0.05"></line><line x1="738" y1="0" x2="656" y2="82" opacity="0.05"></line><line x1="820" y1="0" x2="738" y2="82" opacity="0.05"></line><line x1="902" y1="0" x2="820" y2="82" opacity="0.05"></line><line x1="902" y1="0" x2="984" y2="82" opacity="0.05"></line><line x1="1066" y1="0" x2="984" y2="82" opacity="0.05"></line><line x1="1066" y1="0" x2="1148" y2="82" opacity="0.05"></line><line x1="1230" y1="0" x2="1148" y2="82" opacity="0.05"></line><line x1="1230" y1="0" x2="1312" y2="82" opacity="0.05"></line><line x1="1312" y1="0" x2="1394" y2="82" opacity="0.05"></line><line x1="1476" y1="0" x2="1394" y2="82" opacity="0.05"></line><line x1="82" y1="82" x2="0" y2="164" opacity="0.15"></line><line x1="82" y1="82" x2="164" y2="164" opacity="0.15"></line><line x1="246" y1="82" x2="164" y2="164" opacity="0.15"></line><line x1="246" y1="82" x2="328" y2="164" opacity="0.15"></line><line x1="328" y1="82" x2="410" y2="164" opacity="0.15"></line><line x1="410" y1="82" x2="492" y2="164" opacity="0.15"></line><line x1="492" y1="82" x2="574" y2="164" opacity="0.15"></line><line x1="574" y1="82" x2="656" y2="164" opacity="0.15"></line><line x1="656" y1="82" x2="738" y2="164" opacity="0.15"></line><line x1="820" y1="82" x2="738" y2="164" opacity="0.15"></line><line x1="820" y1="82" x2="902" y2="164" opacity="0.15"></line><line x1="902" y1="82" x2="984" y2="164" opacity="0.15"></line><line x1="984" y1="82" x2="1066" y2="164" opacity="0.15"></line><line x1="1148" y1="82" x2="1066" y2="164" opacity="0.15"></line><line x1="1230" y1="82" x2="1148" y2="164" opacity="0.15"></line><line x1="1312" y1="82" x2="1230" y2="164" opacity="0.15"></line><line x1="1312" y1="82" x2="1394" y2="164" opacity="0.15"></line><line x1="1476" y1="82" x2="1394" y2="164" opacity="0.15"></line><line x1="0" y1="164" x2="82" y2="246" opacity="0.24"></line><line x1="164" y1="164" x2="82" y2="246" opacity="0.24"></line><line x1="164" y1="164" x2="246" y2="246" opacity="0.24"></line><line x1="328" y1="164" x2="246" y2="246" opacity="0.24"></line><line x1="410" y1="164" x2="328" y2="246" opacity="0.24"></line><line x1="410" y1="164" x2="492" y2="246" opacity="0.24"></line><line x1="574" y1="164" x2="492" y2="246" opacity="0.24"></line><line x1="574" y1="164" x2="656" y2="246" opacity="0.24"></line><line x1="656" y1="164" x2="738" y2="246" opacity="0.24"></line><line x1="738" y1="164" x2="820" y2="246" opacity="0.24"></line><line x1="902" y1="164" x2="820" y2="246" opacity="0.24"></line><line x1="902" y1="164" x2="984" y2="246" opacity="0.24"></line><line x1="984" y1="164" x2="1066" y2="246" opacity="0.24"></line><line x1="1066" y1="164" x2="1148" y2="246" opacity="0.24"></line><line x1="1148" y1="164" x2="1230" y2="246" opacity="0.24"></line><line x1="1312" y1="164" x2="1230" y2="246" opacity="0.24"></line><line x1="1312" y1="164" x2="1394" y2="246" opacity="0.24"></line><line x1="1394" y1="164" x2="1476" y2="246" opacity="0.24"></line><line x1="0" y1="246" x2="82" y2="328" opacity="0.34"></line><line x1="164" y1="246" x2="82" y2="328" opacity="0.34"></line><line x1="246" y1="246" x2="164" y2="328" opacity="0.34"></line><line x1="328" y1="246" x2="246" y2="328" opacity="0.34"></line><line x1="328" y1="246" x2="410" y2="328" opacity="0.34"></line><line x1="410" y1="246" x2="492" y2="328" opacity="0.34"></line><line x1="574" y1="246" x2="492" y2="328" opacity="0.34"></line><line x1="574" y1="246" x2="656" y2="328" opacity="0.34"></line><line x1="738" y1="246" x2="656" y2="328" opacity="0.34"></line><line x1="820" y1="246" x2="738" y2="328" opacity="0.34"></line><line x1="902" y1="246" x2="820" y2="328" opacity="0.34"></line><line x1="902" y1="246" x2="984" y2="328" opacity="0.34"></line><line x1="984" y1="246" x2="1066" y2="328" opacity="0.34"></line><line x1="1148" y1="246" x2="1066" y2="328" opacity="0.34"></line><line x1="1148" y1="246" x2="1230" y2="328" opacity="0.34"></line><line x1="1312" y1="246" x2="1230" y2="328" opacity="0.34"></line><line x1="1394" y1="246" x2="1312" y2="328" opacity="0.34"></line><line x1="1394" y1="246" x2="1476" y2="328" opacity="0.34"></line><line x1="82" y1="328" x2="0" y2="410" opacity="0.44"></line><line x1="164" y1="328" x2="82" y2="410" opacity="0.44"></line><line x1="246" y1="328" x2="164" y2="410" opacity="0.44"></line><line x1="246" y1="328" x2="328" y2="410" opacity="0.44"></line><line x1="410" y1="328" x2="328" y2="410" opacity="0.44"></line><line x1="410" y1="328" x2="492" y2="410" opacity="0.44"></line><line x1="492" y1="328" x2="574" y2="410" opacity="0.44"></line><line x1="574" y1="328" x2="656" y2="410" opacity="0.44"></line><line x1="738" y1="328" x2="656" y2="410" opacity="0.44"></line><line x1="820" y1="328" x2="738" y2="410" opacity="0.44"></line><line x1="902" y1="328" x2="820" y2="410" opacity="0.44"></line><line x1="984" y1="328" x2="902" y2="410" opacity="0.44"></line><line x1="984" y1="328" x2="1066" y2="410" opacity="0.44"></line><line x1="1066" y1="328" x2="1148" y2="410" opacity="0.44"></line><line x1="1148" y1="328" x2="1230" y2="410" opacity="0.44"></line><line x1="1230" y1="328" x2="1312" y2="410" opacity="0.44"></line><line x1="1394" y1="328" x2="1312" y2="410" opacity="0.44"></line><line x1="1476" y1="328" x2="1394" y2="410" opacity="0.44"></line><line x1="0" y1="410" x2="82" y2="492" opacity="0.54"></line><line x1="164" y1="410" x2="82" y2="492" opacity="0.54"></line><line x1="246" y1="410" x2="164" y2="492" opacity="0.54"></line><line x1="246" y1="410" x2="328" y2="492" opacity="0.54"></line><line x1="410" y1="410" x2="328" y2="492" opacity="0.54"></line><line x1="410" y1="410" x2="492" y2="492" opacity="0.54"></line><line x1="574" y1="410" x2="492" y2="492" opacity="0.54"></line><line x1="574" y1="410" x2="656" y2="492" opacity="0.54"></line><line x1="656" y1="410" x2="738" y2="492" opacity="0.54"></line><line x1="738" y1="410" x2="820" y2="492" opacity="0.54"></line><line x1="820" y1="410" x2="902" y2="492" opacity="0.54"></line><line x1="984" y1="410" x2="902" y2="492" opacity="0.54"></line><line x1="984" y1="410" x2="1066" y2="492" opacity="0.54"></line><line x1="1148" y1="410" x2="1066" y2="492" opacity="0.54"></line><line x1="1230" y1="410" x2="1148" y2="492" opacity="0.54"></line><line x1="1230" y1="410" x2="1312" y2="492" opacity="0.54"></line><line x1="1394" y1="410" x2="1312" y2="492" opacity="0.54"></line><line x1="1394" y1="410" x2="1476" y2="492" opacity="0.54"></line><line x1="0" y1="492" x2="82" y2="574" opacity="0.63"></line><line x1="164" y1="492" x2="82" y2="574" opacity="0.63"></line><line x1="246" y1="492" x2="164" y2="574" opacity="0.63"></line><line x1="246" y1="492" x2="328" y2="574" opacity="0.63"></line><line x1="410" y1="492" x2="328" y2="574" opacity="0.63"></line><line x1="410" y1="492" x2="492" y2="574" opacity="0.63"></line><line x1="574" y1="492" x2="492" y2="574" opacity="0.63"></line><line x1="574" y1="492" x2="656" y2="574" opacity="0.63"></line><line x1="738" y1="492" x2="656" y2="574" opacity="0.63"></line><line x1="738" y1="492" x2="820" y2="574" opacity="0.63"></line><line x1="820" y1="492" x2="902" y2="574" opacity="0.63"></line><line x1="984" y1="492" x2="902" y2="574" opacity="0.63"></line><line x1="984" y1="492" x2="1066" y2="574" opacity="0.63"></line><line x1="1066" y1="492" x2="1148" y2="574" opacity="0.63"></line><line x1="1148" y1="492" x2="1230" y2="574" opacity="0.63"></line><line x1="1230" y1="492" x2="1312" y2="574" opacity="0.63"></line><line x1="1312" y1="492" x2="1394" y2="574" opacity="0.63"></line><line x1="1476" y1="492" x2="1394" y2="574" opacity="0.63"></line><line x1="0" y1="574" x2="82" y2="656" opacity="0.73"></line><line x1="164" y1="574" x2="82" y2="656" opacity="0.73"></line><line x1="164" y1="574" x2="246" y2="656" opacity="0.73"></line><line x1="328" y1="574" x2="246" y2="656" opacity="0.73"></line><line x1="410" y1="574" x2="328" y2="656" opacity="0.73"></line><line x1="492" y1="574" x2="410" y2="656" opacity="0.73"></line><line x1="492" y1="574" x2="574" y2="656" opacity="0.73"></line><line x1="574" y1="574" x2="656" y2="656" opacity="0.73"></line><line x1="656" y1="574" x2="738" y2="656" opacity="0.73"></line><line x1="820" y1="574" x2="738" y2="656" opacity="0.73"></line><line x1="820" y1="574" x2="902" y2="656" opacity="0.73"></line><line x1="984" y1="574" x2="902" y2="656" opacity="0.73"></line><line x1="1066" y1="574" x2="984" y2="656" opacity="0.73"></line><line x1="1066" y1="574" x2="1148" y2="656" opacity="0.73"></line><line x1="1148" y1="574" x2="1230" y2="656" opacity="0.73"></line><line x1="1312" y1="574" x2="1230" y2="656" opacity="0.73"></line><line x1="1312" y1="574" x2="1394" y2="656" opacity="0.73"></line><line x1="1476" y1="574" x2="1394" y2="656" opacity="0.73"></line><line x1="82" y1="656" x2="0" y2="738" opacity="0.83"></line><line x1="164" y1="656" x2="82" y2="738" opacity="0.83"></line><line x1="164" y1="656" x2="246" y2="738" opacity="0.83"></line><line x1="246" y1="656" x2="328" y2="738" opacity="0.83"></line><line x1="410" y1="656" x2="328" y2="738" opacity="0.83"></line><line x1="410" y1="656" x2="492" y2="738" opacity="0.83"></line><line x1="574" y1="656" x2="492" y2="738" opacity="0.83"></line><line x1="656" y1="656" x2="574" y2="738" opacity="0.83"></line><line x1="738" y1="656" x2="656" y2="738" opacity="0.83"></line><line x1="738" y1="656" x2="820" y2="738" opacity="0.83"></line><line x1="820" y1="656" x2="902" y2="738" opacity="0.83"></line><line x1="984" y1="656" x2="902" y2="738" opacity="0.83"></line><line x1="1066" y1="656" x2="984" y2="738" opacity="0.83"></line><line x1="1066" y1="656" x2="1148" y2="738" opacity="0.83"></line><line x1="1148" y1="656" x2="1230" y2="738" opacity="0.83"></line><line x1="1230" y1="656" x2="1312" y2="738" opacity="0.83"></line><line x1="1312" y1="656" x2="1394" y2="738" opacity="0.83"></line><line x1="1476" y1="656" x2="1394" y2="738" opacity="0.83"></line><line x1="82" y1="738" x2="0" y2="820" opacity="0.93"></line><line x1="82" y1="738" x2="164" y2="820" opacity="0.93"></line><line x1="246" y1="738" x2="164" y2="820" opacity="0.93"></line><line x1="246" y1="738" x2="328" y2="820" opacity="0.93"></line><line x1="328" y1="738" x2="410" y2="820" opacity="0.93"></line><line x1="410" y1="738" x2="492" y2="820" opacity="0.93"></line><line x1="574" y1="738" x2="492" y2="820" opacity="0.93"></line><line x1="656" y1="738" x2="574" y2="820" opacity="0.93"></line><line x1="738" y1="738" x2="656" y2="820" opacity="0.93"></line><line x1="820" y1="738" x2="738" y2="820" opacity="0.93"></line><line x1="820" y1="738" x2="902" y2="820" opacity="0.93"></line><line x1="902" y1="738" x2="984" y2="820" opacity="0.93"></line><line x1="984" y1="738" x2="1066" y2="820" opacity="0.93"></line><line x1="1066" y1="738" x2="1148" y2="820" opacity="0.93"></line><line x1="1148" y1="738" x2="1230" y2="820" opacity="0.93"></line><line x1="1230" y1="738" x2="1312" y2="820" opacity="0.93"></line><line x1="1312" y1="738" x2="1394" y2="820" opacity="0.93"></line><line x1="1394" y1="738" x2="1476" y2="820" opacity="0.93"></line></g></svg>